<!DOCTYPE svg PUBLIC "-//W3C//DTD SVG 1.1//EN" "http://www.w3.org/Graphics/SVG/1.1/DTD/svg11.dtd">
<!-- Uploaded to: SVG Repo, www.svgrepo.com, Transformed by: SVG Repo Mixer Tools -->
<svg fill="#ffde66" height="800px" width="800px" version="1.1" id="Capa_1" xmlns="http://www.w3.org/2000/svg" xmlns:xlink="http://www.w3.org/1999/xlink" viewBox="0 0 282.568 282.568" xml:space="preserve" stroke="#ffde66">
<g id="SVGRepo_bgCarrier" stroke-width="0"/>
<g id="SVGRepo_tracerCarrier" stroke-linecap="round" stroke-linejoin="round" stroke="#CCCCCC" stroke-width="1.130272"/>
<g id="SVGRepo_iconCarrier"> <path d="M217.608,258.075c0,4.142-3.358,7.5-7.5,7.5h-139c-4.142,0-7.5-3.358-7.5-7.5v-16c0-4.142,3.358-7.5,7.5-7.5h139 c4.142,0,7.5,3.358,7.5,7.5V258.075z M88.721,46.435c8.117,0,14.721-6.604,14.721-14.721s-6.604-14.721-14.721-14.721 S74,23.597,74,31.714S80.604,46.435,88.721,46.435z M193.721,46.435c8.117,0,14.721-6.604,14.721-14.721 s-6.604-14.721-14.721-14.721S179,23.597,179,31.714S185.604,46.435,193.721,46.435z M267.721,35.866 c-8.188,0-14.848,6.66-14.848,14.848s6.66,14.848,14.848,14.848s14.848-6.66,14.848-14.848S275.908,35.866,267.721,35.866z M29.441,49.714c0-8.117-6.604-14.721-14.721-14.721S0,41.597,0,49.714s6.604,14.721,14.721,14.721S29.441,57.831,29.441,49.714z M259.732,69.983c-3.39-1.733-7.542-0.653-9.656,2.514l-52.367,78.486l-0.394-90.936c-0.016-3.479-2.419-6.489-5.808-7.274 c-3.387-0.784-6.871,0.862-8.414,3.979l-42.279,85.426l-42.277-85.41c-1.542-3.117-5.032-4.765-8.414-3.979 c-3.389,0.785-5.793,3.796-5.808,7.274l-0.394,90.951L31.555,72.497c-2.111-3.167-6.264-4.251-9.655-2.516 c-3.391,1.735-4.942,5.735-3.609,9.303l49.5,132.417c1.096,2.932,3.896,4.874,7.025,4.874h132c3.129,0,5.93-1.942,7.025-4.874 l49.5-132.415C264.674,75.719,263.123,71.719,259.732,69.983z"/> </g>
</svg>