<?xml version="1.0" encoding="UTF-8"?>
<!DOCTYPE svg PUBLIC "-//W3C//DTD SVG 1.1//EN" "http://www.w3.org/Graphics/SVG/1.1/DTD/svg11.dtd">
<svg xmlns="http://www.w3.org/2000/svg" version="1.1" width="280px" height="280px" style="shape-rendering:geometricPrecision; text-rendering:geometricPrecision; image-rendering:optimizeQuality; fill-rule:evenodd; clip-rule:evenodd" xmlns:xlink="http://www.w3.org/1999/xlink">
<g><path style="opacity:1" fill="#f5f5f5" d="M -0.5,-0.5 C 92.8333,-0.5 186.167,-0.5 279.5,-0.5C 279.5,92.8333 279.5,186.167 279.5,279.5C 186.167,279.5 92.8333,279.5 -0.5,279.5C -0.5,186.167 -0.5,92.8333 -0.5,-0.5 Z"/></g>
<g><path style="opacity:1" fill="#bec1c2" d="M 249.5,9.5 C 249.5,10.1667 249.5,10.8333 249.5,11.5C 244.797,11.4372 240.13,11.7705 235.5,12.5C 235.611,11.8826 235.944,11.3826 236.5,11C 240.813,10.2646 245.147,9.76456 249.5,9.5 Z"/></g>
<g><path style="opacity:1" fill="#79bbd7" d="M 249.5,9.5 C 252.206,9.5751 254.873,9.90843 257.5,10.5C 258.167,11.1667 258.833,11.8333 259.5,12.5C 256.214,11.7929 252.881,11.4595 249.5,11.5C 249.5,10.8333 249.5,10.1667 249.5,9.5 Z"/></g>
<g><path style="opacity:1" fill="#d3eff9" d="M 257.5,10.5 C 261.708,11.0399 264.375,13.3732 265.5,17.5C 263.475,15.8036 261.475,14.137 259.5,12.5C 258.833,11.8333 258.167,11.1667 257.5,10.5 Z"/></g>
<g><path style="opacity:1" fill="#bbbcbb" d="M 85.5,11.5 C 92.2831,11.8971 96.9498,15.5638 99.5,22.5C 98.5,21.8333 97.5,21.1667 96.5,20.5C 94.5935,17.6676 91.9268,16.8343 88.5,18C 85.0454,22.5486 81.3787,26.8819 77.5,31C 76.2068,31.49 74.8734,31.6567 73.5,31.5C 73.3505,30.448 73.5172,29.448 74,28.5C 78.8782,23.2905 83.3782,17.7905 87.5,12C 86.9056,11.5357 86.2389,11.369 85.5,11.5 Z"/></g>
<g><path style="opacity:1" fill="#2faadf" d="M 262.5,24.5 C 260.1,21.0969 257.1,18.4302 253.5,16.5C 253.5,16.1667 253.5,15.8333 253.5,15.5C 253.47,14.5028 253.97,13.8361 255,13.5C 260.833,14.6667 264.333,18.1667 265.5,24C 265.333,24.5 265.167,25 265,25.5C 264.329,24.7476 263.496,24.4142 262.5,24.5 Z"/></g>
<g><path style="opacity:1" fill="#afafaf" d="M 234.5,12.5 C 231.808,15.1807 228.475,16.5141 224.5,16.5C 227.34,14.0849 230.673,12.7516 234.5,12.5 Z"/></g>
<g><path style="opacity:1" fill="#949595" d="M 249.5,11.5 C 250.326,13.2644 251.659,14.5977 253.5,15.5C 253.5,15.8333 253.5,16.1667 253.5,16.5C 253.167,16.5 252.833,16.5 252.5,16.5C 248.417,15.6081 244.417,15.2747 240.5,15.5C 234.888,18.8035 229.221,21.8035 223.5,24.5C 223.158,25.3382 222.492,25.6716 221.5,25.5C 217.2,27.4394 212.867,29.4394 208.5,31.5C 207.702,31.0431 207.369,30.3764 207.5,29.5C 208.167,28.5 208.833,27.5 209.5,26.5C 214.065,22.4349 219.065,19.1015 224.5,16.5C 228.475,16.5141 231.808,15.1807 234.5,12.5C 234.833,12.5 235.167,12.5 235.5,12.5C 240.13,11.7705 244.797,11.4372 249.5,11.5 Z"/></g>
<g><path style="opacity:1" fill="#a4a5a4" d="M 252.5,16.5 C 248.688,17.3238 244.688,17.8238 240.5,18C 235.037,20.7328 229.37,22.8994 223.5,24.5C 229.221,21.8035 234.888,18.8035 240.5,15.5C 244.417,15.2747 248.417,15.6081 252.5,16.5 Z"/></g>
<g><path style="opacity:1" fill="#7bb9d2" d="M 253.5,16.5 C 257.1,18.4302 260.1,21.0969 262.5,24.5C 262.5,24.8333 262.5,25.1667 262.5,25.5C 261.833,25.1667 261.167,24.8333 260.5,24.5C 258.833,22.1667 256.833,20.1667 254.5,18.5C 254.167,17.8333 253.833,17.1667 253.5,16.5 Z"/></g>
<g><path style="opacity:1" fill="#8eb9cc" d="M 32.5,22.5 C 30.4513,21.3586 28.4513,21.3586 26.5,22.5C 26.7911,21.3509 27.6244,20.6842 29,20.5C 30.6991,20.3866 31.8658,21.0532 32.5,22.5 Z"/></g>
<g><path style="opacity:1" fill="#b3daeb" d="M 266.5,19.5 C 267.966,20.347 268.8,21.6803 269,23.5C 269.497,25.8098 269.663,28.1432 269.5,30.5C 268.833,30.5 268.5,30.1667 268.5,29.5C 268.453,26.0314 267.787,22.698 266.5,19.5 Z"/></g>
<g><path style="opacity:1" fill="#419dc7" d="M 249.5,11.5 C 252.881,11.4595 256.214,11.7929 259.5,12.5C 261.475,14.137 263.475,15.8036 265.5,17.5C 266.338,17.8417 266.672,18.5084 266.5,19.5C 267.787,22.698 268.453,26.0314 268.5,29.5C 266.127,28.797 264.127,27.4637 262.5,25.5C 262.5,25.1667 262.5,24.8333 262.5,24.5C 263.496,24.4142 264.329,24.7476 265,25.5C 265.167,25 265.333,24.5 265.5,24C 264.333,18.1667 260.833,14.6667 255,13.5C 253.97,13.8361 253.47,14.5028 253.5,15.5C 251.659,14.5977 250.326,13.2644 249.5,11.5 Z"/></g>
<g><path style="opacity:1" fill="#b2b2b2" d="M 252.5,16.5 C 252.833,16.5 253.167,16.5 253.5,16.5C 253.833,17.1667 254.167,17.8333 254.5,18.5C 245.635,18.5612 237.301,20.8946 229.5,25.5C 230.947,26.9348 232.614,27.9348 234.5,28.5C 232.833,28.5 231.167,28.5 229.5,28.5C 228.791,27.596 227.791,27.2627 226.5,27.5C 226.5,28.8333 226.5,30.1667 226.5,31.5C 225.739,30.6091 224.739,29.9424 223.5,29.5C 220.679,31.0962 217.679,32.0962 214.5,32.5C 216.951,30.4099 219.284,28.0766 221.5,25.5C 222.492,25.6716 223.158,25.3382 223.5,24.5C 229.37,22.8994 235.037,20.7328 240.5,18C 244.688,17.8238 248.688,17.3238 252.5,16.5 Z"/></g>
<g><path style="opacity:1" fill="#d3d3d3" d="M 256.5,37.5 C 256.185,41.5012 254.852,45.1678 252.5,48.5C 251.824,47.3984 251.158,46.3984 250.5,45.5C 249.167,45.5 247.833,45.5 246.5,45.5C 246.5,46.5 246.5,47.5 246.5,48.5C 245.833,47.1667 245.167,45.8333 244.5,44.5C 244.5,43.8333 244.5,43.1667 244.5,42.5C 246.042,43.3007 247.708,43.634 249.5,43.5C 249.5,42.5 249.5,41.5 249.5,40.5C 251.042,41.3007 252.708,41.634 254.5,41.5C 257.384,27.5477 252.05,22.381 238.5,26C 237.748,26.6708 237.414,27.5041 237.5,28.5C 235.534,27.7455 235.2,26.5788 236.5,25C 242.328,22.7732 248.328,22.1066 254.5,23C 256.124,24.1171 257.124,25.6171 257.5,27.5C 256.673,30.7831 256.34,34.1165 256.5,37.5 Z"/></g>
<g><path style="opacity:1" fill="#cfd0d0" d="M 77.5,20.5 C 75.0508,24.4296 72.3841,28.0962 69.5,31.5C 70.9686,26.8702 73.6352,23.2035 77.5,20.5 Z"/></g>
<g><path style="opacity:1" fill="#d0d0d0" d="M 141.5,33.5 C 141.167,33.5 140.833,33.5 140.5,33.5C 140.068,32.2905 139.401,31.2905 138.5,30.5C 135.62,25.9662 131.954,23.2996 127.5,22.5C 126.194,24.4727 124.527,26.1394 122.5,27.5C 123.095,23.7374 125.262,21.404 129,20.5C 134.728,23.3931 138.894,27.7265 141.5,33.5 Z"/></g>
<g><path style="opacity:1" fill="#a6aaaa" d="M 85.5,11.5 C 86.2389,11.369 86.9056,11.5357 87.5,12C 83.3782,17.7905 78.8782,23.2905 74,28.5C 73.5172,29.448 73.3505,30.448 73.5,31.5C 74.8734,31.6567 76.2068,31.49 77.5,31C 81.3787,26.8819 85.0454,22.5486 88.5,18C 91.9268,16.8343 94.5935,17.6676 96.5,20.5C 94.9731,20.427 93.9731,21.0937 93.5,22.5C 90.3304,25.2384 86.6638,27.2384 82.5,28.5C 81.5481,30.0453 81.2148,31.712 81.5,33.5C 79.901,33.2322 78.5676,33.5655 77.5,34.5C 76.7095,35.4013 75.7095,36.0679 74.5,36.5C 71.9242,36.5321 69.5909,35.8654 67.5,34.5C 66.8333,34.5 66.5,34.1667 66.5,33.5C 68.1788,33.7148 69.1788,33.0481 69.5,31.5C 72.3841,28.0962 75.0508,24.4296 77.5,20.5C 80.8515,18.1463 83.5181,15.1463 85.5,11.5 Z"/></g>
<g><path style="opacity:1" fill="#797a79" d="M 96.5,20.5 C 97.5,21.1667 98.5,21.8333 99.5,22.5C 99.5,22.8333 99.5,23.1667 99.5,23.5C 97.8008,23.3398 96.1341,23.5065 94.5,24C 91.2635,26.7806 88.2635,29.7806 85.5,33C 83.9751,34.0086 82.3084,34.5086 80.5,34.5C 79.5,34.5 78.5,34.5 77.5,34.5C 78.5676,33.5655 79.901,33.2322 81.5,33.5C 85.7671,30.2376 89.7671,26.5709 93.5,22.5C 93.9731,21.0937 94.9731,20.427 96.5,20.5 Z"/></g>
<g><path style="opacity:1" fill="#b3b3b3" d="M 127.5,22.5 C 131.954,23.2996 135.62,25.9662 138.5,30.5C 133.174,34.4955 128.174,38.8289 123.5,43.5C 120.5,43.5 117.5,43.5 114.5,43.5C 114.238,42.0222 114.571,40.6888 115.5,39.5C 119.893,33.926 124.56,28.426 129.5,23C 128.906,22.5357 128.239,22.369 127.5,22.5 Z"/></g>
<g><path style="opacity:1" fill="#c7c8c7" d="M 254.5,18.5 C 256.833,20.1667 258.833,22.1667 260.5,24.5C 260.911,29.5093 259.578,33.8426 256.5,37.5C 256.34,34.1165 256.673,30.7831 257.5,27.5C 257.124,25.6171 256.124,24.1171 254.5,23C 248.328,22.1066 242.328,22.7732 236.5,25C 235.2,26.5788 235.534,27.7455 237.5,28.5C 238.492,28.3284 239.158,28.6618 239.5,29.5C 237.259,30.2998 236.259,31.9664 236.5,34.5C 235.833,34.1667 235.167,33.8333 234.5,33.5C 234.5,33.1667 234.5,32.8333 234.5,32.5C 235.833,31.1667 235.833,29.8333 234.5,28.5C 232.614,27.9348 230.947,26.9348 229.5,25.5C 237.301,20.8946 245.635,18.5612 254.5,18.5 Z"/></g>
<g><path style="opacity:1" fill="#1f7aa2" d="M 32.5,22.5 C 34.5,22.8333 36.5,23.1667 38.5,23.5C 44.4024,26.8031 50.7357,29.1364 57.5,30.5C 58.6354,32.2132 60.302,32.8799 62.5,32.5C 63.8333,32.8333 65.1667,33.1667 66.5,33.5C 66.5,34.1667 66.8333,34.5 67.5,34.5C 68.1098,35.391 68.4431,36.391 68.5,37.5C 55.8502,34.5604 43.5168,30.727 31.5,26C 29.4546,25.5099 27.4546,25.6765 25.5,26.5C 25.4431,25.391 25.1098,24.391 24.5,23.5C 25.4916,23.6716 26.1583,23.3382 26.5,22.5C 28.4513,21.3586 30.4513,21.3586 32.5,22.5 Z"/></g>
<g><path style="opacity:1" fill="#a6cddd" d="M 38.5,23.5 C 45.2009,25.0251 51.5343,27.3585 57.5,30.5C 50.7357,29.1364 44.4024,26.8031 38.5,23.5 Z"/></g>
<g><path style="opacity:1" fill="#60605f" d="M 99.5,23.5 C 100.782,24.7082 100.782,26.0416 99.5,27.5C 97.1455,29.1878 95.1455,31.1878 93.5,33.5C 91.2228,34.4486 89.2228,35.7819 87.5,37.5C 87.1667,37.5 86.8333,37.5 86.5,37.5C 84.2488,36.9851 82.2488,35.9851 80.5,34.5C 82.3084,34.5086 83.9751,34.0086 85.5,33C 88.2635,29.7806 91.2635,26.7806 94.5,24C 96.1341,23.5065 97.8008,23.3398 99.5,23.5 Z"/></g>
<g><path style="opacity:1" fill="#8e908f" d="M 93.5,22.5 C 89.7671,26.5709 85.7671,30.2376 81.5,33.5C 81.2148,31.712 81.5481,30.0453 82.5,28.5C 86.6638,27.2384 90.3304,25.2384 93.5,22.5 Z"/></g>
<g><path style="opacity:1" fill="#eaeaea" d="M 249.5,40.5 C 249.34,38.847 248.674,37.5137 247.5,36.5C 246.791,35.596 245.791,35.2627 244.5,35.5C 244.737,34.209 244.404,33.209 243.5,32.5C 242.205,31.5116 240.872,30.5116 239.5,29.5C 239.158,28.6618 238.492,28.3284 237.5,28.5C 237.414,27.5041 237.748,26.6708 238.5,26C 252.05,22.381 257.384,27.5477 254.5,41.5C 252.708,41.634 251.042,41.3007 249.5,40.5 Z"/></g>
<g><path style="opacity:1" fill="#8ca6b1" d="M 15.5,28.5 C 15.1667,29.5 14.5,30.1667 13.5,30.5C 13.5,29.1667 14.1667,28.5 15.5,28.5 Z"/></g>
<g><path style="opacity:1" fill="#0f384b" d="M 24.5,23.5 C 25.1098,24.391 25.4431,25.391 25.5,26.5C 24.1266,26.3433 22.7932,26.51 21.5,27C 18.8902,29.2494 16.8902,31.7494 15.5,34.5C 14.0048,34.0113 12.6715,33.3446 11.5,32.5C 12.5,32.1667 13.1667,31.5 13.5,30.5C 14.5,30.1667 15.1667,29.5 15.5,28.5C 17.6298,26.8729 19.6298,25.0396 21.5,23C 22.7494,22.2599 23.7494,22.4265 24.5,23.5 Z"/></g>
<g><path style="opacity:1" fill="#d4d9d8" d="M 209.5,26.5 C 208.833,27.5 208.167,28.5 207.5,29.5C 205.668,30.2485 204.001,31.2485 202.5,32.5C 203.612,29.0536 205.945,27.0536 209.5,26.5 Z"/></g>
<g><path style="opacity:1" fill="#146d92" d="M 25.5,26.5 C 21.4464,28.5535 18.4464,31.5535 16.5,35.5C 16.1667,35.5 15.8333,35.5 15.5,35.5C 15.5,35.1667 15.5,34.8333 15.5,34.5C 16.8902,31.7494 18.8902,29.2494 21.5,27C 22.7932,26.51 24.1266,26.3433 25.5,26.5 Z"/></g>
<g><path style="opacity:1" fill="#464646" d="M 229.5,28.5 C 229.5,29.8333 229.5,31.1667 229.5,32.5C 228.209,32.7373 227.209,32.404 226.5,31.5C 226.5,30.1667 226.5,28.8333 226.5,27.5C 227.791,27.2627 228.791,27.596 229.5,28.5 Z"/></g>
<g><path style="opacity:1" fill="#808080" d="M 229.5,28.5 C 231.167,28.5 232.833,28.5 234.5,28.5C 235.833,29.8333 235.833,31.1667 234.5,32.5C 234.5,31.5 234.5,30.5 234.5,29.5C 233.5,29.5 232.5,29.5 231.5,29.5C 231.5,30.5 231.5,31.5 231.5,32.5C 230.833,32.5 230.167,32.5 229.5,32.5C 229.5,31.1667 229.5,29.8333 229.5,28.5 Z"/></g>
<g><path style="opacity:1" fill="#7699a7" d="M 13.5,30.5 C 13.1667,31.5 12.5,32.1667 11.5,32.5C 11.5,31.1667 12.1667,30.5 13.5,30.5 Z"/></g>
<g><path style="opacity:1" fill="#a2a4a3" d="M 127.5,22.5 C 128.239,22.369 128.906,22.5357 129.5,23C 124.56,28.426 119.893,33.926 115.5,39.5C 114.571,40.6888 114.238,42.0222 114.5,43.5C 117.5,43.5 120.5,43.5 123.5,43.5C 122.5,44.1667 121.5,44.8333 120.5,45.5C 119.833,45.5 119.5,45.8333 119.5,46.5C 117.246,47.4151 115.246,48.7484 113.5,50.5C 112.957,50.44 112.624,50.1067 112.5,49.5C 115.413,47.099 115.079,45.7657 111.5,45.5C 111.5,45.1667 111.5,44.8333 111.5,44.5C 112.447,41.0664 113.614,37.733 115,34.5C 117.514,32.0886 120.014,29.7552 122.5,27.5C 124.527,26.1394 126.194,24.4727 127.5,22.5 Z"/></g>
<g><path style="opacity:1" fill="#6eaac5" d="M 57.5,30.5 C 59.403,30.7959 61.0697,31.4625 62.5,32.5C 60.302,32.8799 58.6354,32.2132 57.5,30.5 Z"/></g>
<g><path style="opacity:1" fill="#545454" d="M 234.5,32.5 C 234.5,32.8333 234.5,33.1667 234.5,33.5C 233.833,33.5 233.167,33.5 232.5,33.5C 232.5,32.8333 232.167,32.5 231.5,32.5C 231.5,31.5 231.5,30.5 231.5,29.5C 232.5,29.5 233.5,29.5 234.5,29.5C 234.5,30.5 234.5,31.5 234.5,32.5 Z"/></g>
<g><path style="opacity:1" fill="#656565" d="M 239.5,29.5 C 240.872,30.5116 242.205,31.5116 243.5,32.5C 243.912,34.9726 242.912,36.3059 240.5,36.5C 239.609,35.8902 238.609,35.5569 237.5,35.5C 237.5,34.8333 237.167,34.5 236.5,34.5C 236.259,31.9664 237.259,30.2998 239.5,29.5 Z"/></g>
<g><path style="opacity:1" fill="#76939e" d="M 11.5,32.5 C 12.6715,33.3446 14.0048,34.0113 15.5,34.5C 15.5,34.8333 15.5,35.1667 15.5,35.5C 13.6883,35.2287 12.0217,34.562 10.5,33.5C 10.6236,32.8933 10.9569,32.56 11.5,32.5 Z"/></g>
<g><path style="opacity:1" fill="#c4c4c2" d="M 93.5,33.5 C 92.2921,36.0442 90.2921,37.3775 87.5,37.5C 89.2228,35.7819 91.2228,34.4486 93.5,33.5 Z"/></g>
<g><path style="opacity:1" fill="#e2e2e2" d="M 226.5,34.5 C 213.423,43.4999 201.257,53.8332 190,65.5C 184.734,73.1365 180.234,81.3032 176.5,90C 171.083,96.1075 165.416,102.107 159.5,108C 159.833,108.333 160.167,108.667 160.5,109C 158.355,109.743 158.189,110.576 160,111.5C 162.449,110.359 164.949,109.359 167.5,108.5C 171.21,111.169 174.877,111.003 178.5,108C 197.335,95.1569 215.168,80.9902 232,65.5C 236.487,60.5245 240.487,55.1911 244,49.5C 244.494,47.8659 244.66,46.1992 244.5,44.5C 245.167,45.8333 245.833,47.1667 246.5,48.5C 246.5,49.1667 246.5,49.8333 246.5,50.5C 245.596,51.209 245.263,52.209 245.5,53.5C 233.276,65.8887 221.276,78.3887 209.5,91C 190.717,107.744 169.384,120.411 145.5,129C 130.991,137.841 117.325,147.841 104.5,159C 103.207,159.49 101.873,159.657 100.5,159.5C 100.486,155.525 101.819,152.192 104.5,149.5C 105.239,149.631 105.906,149.464 106.5,149C 109.667,145.5 112.833,142 116,138.5C 116.333,138.833 116.667,139.167 117,139.5C 117.456,138.256 116.956,137.423 115.5,137C 121.678,129.99 128.011,123.157 134.5,116.5C 137.534,113.984 140.868,111.984 144.5,110.5C 146.595,111.229 148.428,110.563 150,108.5C 156.601,105.117 162.434,100.117 167.5,93.5C 176.734,77.4241 188.067,62.9241 201.5,50C 206.97,46.6862 211.97,42.8528 216.5,38.5C 219.588,36.6249 222.922,35.2915 226.5,34.5 Z"/></g>
<g><path style="opacity:1" fill="#797979" d="M 138.5,30.5 C 139.401,31.2905 140.068,32.2905 140.5,33.5C 136.798,35.0236 133.464,37.1903 130.5,40C 128.457,41.708 126.79,43.708 125.5,46C 123.803,46.3845 122.137,46.2178 120.5,45.5C 121.5,44.8333 122.5,44.1667 123.5,43.5C 128.174,38.8289 133.174,34.4955 138.5,30.5 Z"/></g>
<g><path style="opacity:1" fill="#616261" d="M 140.5,33.5 C 140.833,33.5 141.167,33.5 141.5,33.5C 141.747,35.8583 141.081,37.8583 139.5,39.5C 137.251,40.0798 135.585,41.4131 134.5,43.5C 131.911,44.4194 129.911,46.086 128.5,48.5C 126.77,49.0256 125.436,50.0256 124.5,51.5C 123.833,51.5 123.167,51.5 122.5,51.5C 122.167,51.5 121.833,51.5 121.5,51.5C 121.918,50.7784 122.584,50.2784 123.5,50C 122.468,48.3732 121.134,47.2066 119.5,46.5C 119.5,45.8333 119.833,45.5 120.5,45.5C 122.137,46.2178 123.803,46.3845 125.5,46C 126.79,43.708 128.457,41.708 130.5,40C 133.464,37.1903 136.798,35.0236 140.5,33.5 Z"/></g>
<g><path style="opacity:1" fill="#f9f9f9" d="M 237.5,35.5 C 238.609,35.5569 239.609,35.8902 240.5,36.5C 241.659,37.7403 242.659,39.0736 243.5,40.5C 243.833,41.1667 244.167,41.8333 244.5,42.5C 244.5,43.1667 244.5,43.8333 244.5,44.5C 238.738,51.4364 232.738,58.2697 226.5,65C 214.885,73.6149 204.218,83.2816 194.5,94C 189.934,96.2032 185.768,99.0365 182,102.5C 181.626,101.584 181.126,100.75 180.5,100C 184.942,92.5603 189.775,85.3936 195,78.5C 198.571,71.2602 202.571,64.2602 207,57.5C 214.934,50.9427 222.101,43.6094 228.5,35.5C 231.412,34.9315 234.412,34.9315 237.5,35.5 Z"/></g>
<g><path style="opacity:1" fill="#a1a2a2" d="M 262.5,25.5 C 264.127,27.4637 266.127,28.797 268.5,29.5C 268.5,30.1667 268.833,30.5 269.5,30.5C 269.324,33.7273 268.657,36.7273 267.5,39.5C 267.664,36.8127 267.497,34.146 267,31.5C 266.586,31.0426 266.086,30.7093 265.5,30.5C 263.663,37.8492 261.829,45.1826 260,52.5C 258.594,54.7437 256.761,56.4103 254.5,57.5C 250.444,61.8827 245.778,65.5494 240.5,68.5C 229.982,80.1832 219.315,91.6832 208.5,103C 205.249,104.186 203.082,106.352 202,109.5C 197.922,113.374 194.089,117.374 190.5,121.5C 188.201,122.778 185.868,124.111 183.5,125.5C 175.998,132.408 168.331,139.075 160.5,145.5C 155.063,149.102 150.396,153.602 146.5,159C 140.168,159.999 135.501,163.332 132.5,169C 125.515,174.162 118.181,178.829 110.5,183C 108.109,183.287 105.776,183.787 103.5,184.5C 102.893,184.376 102.56,184.043 102.5,183.5C 102.631,182.761 102.464,182.094 102,181.5C 101.329,182.252 100.496,182.586 99.5,182.5C 99.8333,181.5 100.5,180.833 101.5,180.5C 104.852,181.553 108.185,181.553 111.5,180.5C 126.239,169.937 140.572,158.77 154.5,147C 156.539,145.074 158.206,142.907 159.5,140.5C 165.778,136.887 171.112,132.22 175.5,126.5C 175.833,126.5 176.167,126.5 176.5,126.5C 179.663,124.189 182.997,122.022 186.5,120C 197.333,109.833 208.167,99.6667 219,89.5C 219.333,88.5 219.667,87.5 220,86.5C 226.302,81.1991 232.302,75.5325 238,69.5C 241.832,64.8524 244.999,59.8524 247.5,54.5C 249.099,54.7678 250.432,54.4345 251.5,53.5C 251.5,52.8333 251.5,52.1667 251.5,51.5C 251.5,51.1667 251.5,50.8333 251.5,50.5C 253.167,50.5 254.833,50.5 256.5,50.5C 257.637,44.2589 259.47,38.2589 262,32.5C 262.497,30.1902 262.663,27.8568 262.5,25.5 Z"/></g>
<g><path style="opacity:1" fill="#799fac" d="M 67.5,34.5 C 69.5909,35.8654 71.9242,36.5321 74.5,36.5C 74.1667,37.1667 73.8333,37.8333 73.5,38.5C 72.8333,38.5 72.5,38.8333 72.5,39.5C 70.8007,39.4729 69.4674,38.8062 68.5,37.5C 68.4431,36.391 68.1098,35.391 67.5,34.5 Z"/></g>
<g><path style="opacity:1" fill="#415960" d="M 77.5,34.5 C 78.5,34.5 79.5,34.5 80.5,34.5C 82.2488,35.9851 84.2488,36.9851 86.5,37.5C 86.5,37.8333 86.5,38.1667 86.5,38.5C 86.1667,38.5 85.8333,38.5 85.5,38.5C 81.5,37.1667 77.5,37.1667 73.5,38.5C 73.8333,37.8333 74.1667,37.1667 74.5,36.5C 75.7095,36.0679 76.7095,35.4013 77.5,34.5 Z"/></g>
<g><path style="opacity:1" fill="#ececec" d="M 232.5,33.5 C 233.167,33.5 233.833,33.5 234.5,33.5C 235.167,33.8333 235.833,34.1667 236.5,34.5C 237.167,34.5 237.5,34.8333 237.5,35.5C 234.412,34.9315 231.412,34.9315 228.5,35.5C 222.101,43.6094 214.934,50.9427 207,57.5C 202.571,64.2602 198.571,71.2602 195,78.5C 189.775,85.3936 184.942,92.5603 180.5,100C 181.126,100.75 181.626,101.584 182,102.5C 185.768,99.0365 189.934,96.2032 194.5,94C 204.218,83.2816 214.885,73.6149 226.5,65C 232.738,58.2697 238.738,51.4364 244.5,44.5C 244.66,46.1992 244.494,47.8659 244,49.5C 240.487,55.1911 236.487,60.5245 232,65.5C 215.168,80.9902 197.335,95.1569 178.5,108C 174.877,111.003 171.21,111.169 167.5,108.5C 164.949,109.359 162.449,110.359 160,111.5C 158.189,110.576 158.355,109.743 160.5,109C 160.167,108.667 159.833,108.333 159.5,108C 165.416,102.107 171.083,96.1075 176.5,90C 180.234,81.3032 184.734,73.1365 190,65.5C 201.257,53.8332 213.423,43.4999 226.5,34.5C 228.265,33.5386 230.265,33.2053 232.5,33.5 Z"/></g>
<g><path style="opacity:1" fill="#b9b9b9" d="M 243.5,32.5 C 244.404,33.209 244.737,34.209 244.5,35.5C 245.791,35.2627 246.791,35.596 247.5,36.5C 244.5,36.1667 243.167,37.5 243.5,40.5C 242.659,39.0736 241.659,37.7403 240.5,36.5C 242.912,36.3059 243.912,34.9726 243.5,32.5 Z"/></g>
<g><path style="opacity:1" fill="#727272" d="M 247.5,36.5 C 248.674,37.5137 249.34,38.847 249.5,40.5C 249.5,41.5 249.5,42.5 249.5,43.5C 247.708,43.634 246.042,43.3007 244.5,42.5C 244.167,41.8333 243.833,41.1667 243.5,40.5C 243.167,37.5 244.5,36.1667 247.5,36.5 Z"/></g>
<g><path style="opacity:1" fill="#1995ca" d="M 68.5,37.5 C 69.4674,38.8062 70.8007,39.4729 72.5,39.5C 83.3043,42.918 94.3043,46.418 105.5,50C 107.473,50.4955 109.473,50.6621 111.5,50.5C 114.321,52.7122 117.655,53.7122 121.5,53.5C 123.833,53.5 126.167,53.5 128.5,53.5C 128.833,53.5 129.167,53.5 129.5,53.5C 134.089,55.875 139.089,56.875 144.5,56.5C 145.167,57.1667 145.833,57.8333 146.5,58.5C 134.86,57.2519 123.194,55.5852 111.5,53.5C 110.313,54.8244 110.646,55.8244 112.5,56.5C 113.086,56.2907 113.586,55.9574 114,55.5C 118.28,57.4251 122.78,58.4251 127.5,58.5C 127.67,59.8221 127.337,60.9887 126.5,62C 128.116,62.6152 129.449,63.6152 130.5,65C 129.833,65.3333 129.167,65.6667 128.5,66C 130.432,67.4585 132.432,68.6252 134.5,69.5C 101.438,59.4314 69.1046,47.4314 37.5,33.5C 33.98,31.3148 30.1466,29.6481 26,28.5C 22.1081,29.3804 20.1081,31.7137 20,35.5C 32.0822,42.7918 44.2489,49.9585 56.5,57C 57.2666,58.4705 57.9332,59.9705 58.5,61.5C 57.391,61.4431 56.391,61.1098 55.5,60.5C 54.4324,59.5655 53.099,59.2322 51.5,59.5C 49.8333,58.8333 48.1667,58.1667 46.5,57.5C 43.4771,55.4667 40.4771,53.4667 37.5,51.5C 36.4154,49.4131 34.7488,48.0798 32.5,47.5C 28.6914,44.7587 24.6914,42.2587 20.5,40C 18.9586,38.6288 17.6253,37.1288 16.5,35.5C 18.4464,31.5535 21.4464,28.5535 25.5,26.5C 27.4546,25.6765 29.4546,25.5099 31.5,26C 43.5168,30.727 55.8502,34.5604 68.5,37.5 Z"/></g>
<g><path style="opacity:1" fill="#aacddb" d="M 86.5,37.5 C 86.8333,37.5 87.1667,37.5 87.5,37.5C 89.6063,39.0788 91.9396,40.4121 94.5,41.5C 91.1889,41.6928 88.5223,40.6928 86.5,38.5C 86.5,38.1667 86.5,37.8333 86.5,37.5 Z"/></g>
<g><path style="opacity:1" fill="#ccd5d6" d="M 196.5,37.5 C 193.5,41.1667 190.167,44.5 186.5,47.5C 188.833,43.1667 192.167,39.8333 196.5,37.5 Z"/></g>
<g><path style="opacity:1" fill="#96c0d3" d="M 95.5,41.5 C 98.1522,41.4095 100.485,42.0762 102.5,43.5C 99.8478,43.5905 97.5145,42.9238 95.5,41.5 Z"/></g>
<g><path style="opacity:1" fill="#c0c0c0" d="M 139.5,39.5 C 138.415,41.5869 136.749,42.9202 134.5,43.5C 135.585,41.4131 137.251,40.0798 139.5,39.5 Z"/></g>
<g><path style="opacity:1" fill="#2e7c9f" d="M 85.5,38.5 C 85.8333,38.5 86.1667,38.5 86.5,38.5C 88.5223,40.6928 91.1889,41.6928 94.5,41.5C 94.8333,41.5 95.1667,41.5 95.5,41.5C 97.5145,42.9238 99.8478,43.5905 102.5,43.5C 102.833,43.5 103.167,43.5 103.5,43.5C 103.5,43.8333 103.5,44.1667 103.5,44.5C 97.2586,44.7475 91.2586,43.7475 85.5,41.5C 85.5,40.5 85.5,39.5 85.5,38.5 Z"/></g>
<g><path style="opacity:1" fill="#0f6b91" d="M 85.5,38.5 C 85.5,39.5 85.5,40.5 85.5,41.5C 91.2586,43.7475 97.2586,44.7475 103.5,44.5C 106.096,45.2653 108.763,45.5987 111.5,45.5C 111.5,47.1667 111.5,48.8333 111.5,50.5C 109.473,50.6621 107.473,50.4955 105.5,50C 94.3043,46.418 83.3043,42.918 72.5,39.5C 72.5,38.8333 72.8333,38.5 73.5,38.5C 77.5,37.1667 81.5,37.1667 85.5,38.5 Z"/></g>
<g><path style="opacity:1" fill="#83afc1" d="M 103.5,44.5 C 103.5,44.1667 103.5,43.8333 103.5,43.5C 106.167,43.8333 108.833,44.1667 111.5,44.5C 111.5,44.8333 111.5,45.1667 111.5,45.5C 108.763,45.5987 106.096,45.2653 103.5,44.5 Z"/></g>
<g><path style="opacity:1" fill="#c2c2c1" d="M 134.5,43.5 C 133.089,45.914 131.089,47.5806 128.5,48.5C 129.911,46.086 131.911,44.4194 134.5,43.5 Z"/></g>
<g><path style="opacity:1" fill="#afafaf" d="M 260.5,24.5 C 261.167,24.8333 261.833,25.1667 262.5,25.5C 262.663,27.8568 262.497,30.1902 262,32.5C 259.47,38.2589 257.637,44.2589 256.5,50.5C 254.833,50.5 253.167,50.5 251.5,50.5C 249.833,50.5 248.167,50.5 246.5,50.5C 246.5,49.8333 246.5,49.1667 246.5,48.5C 247.833,48.5 249.167,48.5 250.5,48.5C 250.5,47.5 250.5,46.5 250.5,45.5C 251.158,46.3984 251.824,47.3984 252.5,48.5C 254.852,45.1678 256.185,41.5012 256.5,37.5C 259.578,33.8426 260.911,29.5093 260.5,24.5 Z"/></g>
<g><path style="opacity:1" fill="#666666" d="M 250.5,45.5 C 250.5,46.5 250.5,47.5 250.5,48.5C 249.167,48.5 247.833,48.5 246.5,48.5C 246.5,47.5 246.5,46.5 246.5,45.5C 247.833,45.5 249.167,45.5 250.5,45.5 Z"/></g>
<g><path style="opacity:1" fill="#464c4c" d="M 119.5,46.5 C 121.134,47.2066 122.468,48.3732 123.5,50C 122.584,50.2784 121.918,50.7784 121.5,51.5C 118.67,52.4591 116.004,52.1258 113.5,50.5C 115.246,48.7484 117.246,47.4151 119.5,46.5 Z"/></g>
<g><path style="opacity:1" fill="#80bfdb" d="M 32.5,47.5 C 34.7488,48.0798 36.4154,49.4131 37.5,51.5C 35.2512,50.9202 33.5846,49.5869 32.5,47.5 Z"/></g>
<g><path style="opacity:1" fill="#393939" d="M 251.5,51.5 C 251.5,52.1667 251.5,52.8333 251.5,53.5C 246.167,52.8333 246.167,52.1667 251.5,51.5 Z"/></g>
<g><path style="opacity:1" fill="#cbcbcb" d="M 264.5,48.5 C 264.834,51.491 263.834,53.8243 261.5,55.5C 261.935,52.8427 262.935,50.5093 264.5,48.5 Z"/></g>
<g><path style="opacity:1" fill="#427e98" d="M 111.5,45.5 C 115.079,45.7657 115.413,47.099 112.5,49.5C 112.624,50.1067 112.957,50.44 113.5,50.5C 116.004,52.1258 118.67,52.4591 121.5,51.5C 121.833,51.5 122.167,51.5 122.5,51.5C 122.167,52.1667 121.833,52.8333 121.5,53.5C 117.655,53.7122 114.321,52.7122 111.5,50.5C 111.5,48.8333 111.5,47.1667 111.5,45.5 Z"/></g>
<g><path style="opacity:1" fill="#b3cfda" d="M 122.5,51.5 C 123.167,51.5 123.833,51.5 124.5,51.5C 125.833,52.1667 127.167,52.8333 128.5,53.5C 126.167,53.5 123.833,53.5 121.5,53.5C 121.833,52.8333 122.167,52.1667 122.5,51.5 Z"/></g>
<g><path style="opacity:1" fill="#d2d2d1" d="M 226.5,31.5 C 227.209,32.404 228.209,32.7373 229.5,32.5C 230.167,32.5 230.833,32.5 231.5,32.5C 232.167,32.5 232.5,32.8333 232.5,33.5C 230.265,33.2053 228.265,33.5386 226.5,34.5C 222.922,35.2915 219.588,36.6249 216.5,38.5C 211.134,41.021 206.134,44.1877 201.5,48C 194.287,55.5127 186.787,62.6793 179,69.5C 172.951,80.4214 165.785,90.5881 157.5,100C 152.084,103.369 146.417,106.369 140.5,109C 135.294,113.711 129.961,118.211 124.5,122.5C 126.087,119.732 127.92,117.065 130,114.5C 134.001,111.665 137.501,108.332 140.5,104.5C 141.167,104.167 141.833,103.833 142.5,103.5C 150.441,97.8935 157.775,91.5602 164.5,84.5C 171.01,76.7933 177.51,69.1266 184,61.5C 192.033,53.966 199.867,46.2993 207.5,38.5C 210.06,36.7267 212.393,34.7267 214.5,32.5C 217.679,32.0962 220.679,31.0962 223.5,29.5C 224.739,29.9424 225.739,30.6091 226.5,31.5 Z"/></g>
<g><path style="opacity:1" fill="#696969" d="M 246.5,50.5 C 248.167,50.5 249.833,50.5 251.5,50.5C 251.5,50.8333 251.5,51.1667 251.5,51.5C 246.167,52.1667 246.167,52.8333 251.5,53.5C 250.432,54.4345 249.099,54.7678 247.5,54.5C 246.566,53.4324 246.232,52.099 246.5,50.5 Z"/></g>
<g><path style="opacity:1" fill="#95c6db" d="M 129.5,53.5 C 134.727,53.9783 139.727,54.9783 144.5,56.5C 139.089,56.875 134.089,55.875 129.5,53.5 Z"/></g>
<g><path style="opacity:1" fill="#dddddd" d="M 216.5,38.5 C 211.97,42.8528 206.97,46.6862 201.5,50C 188.067,62.9241 176.734,77.4241 167.5,93.5C 162.434,100.117 156.601,105.117 150,108.5C 148.428,110.563 146.595,111.229 144.5,110.5C 140.868,111.984 137.534,113.984 134.5,116.5C 128.011,123.157 121.678,129.99 115.5,137C 116.956,137.423 117.456,138.256 117,139.5C 116.667,139.167 116.333,138.833 116,138.5C 112.833,142 109.667,145.5 106.5,149C 105.906,149.464 105.239,149.631 104.5,149.5C 104.5,148.833 104.5,148.167 104.5,147.5C 107.167,143.833 109.833,140.167 112.5,136.5C 116.953,132.286 120.953,127.62 124.5,122.5C 129.961,118.211 135.294,113.711 140.5,109C 146.417,106.369 152.084,103.369 157.5,100C 165.785,90.5881 172.951,80.4214 179,69.5C 186.787,62.6793 194.287,55.5127 201.5,48C 206.134,44.1877 211.134,41.021 216.5,38.5 Z"/></g>
<g><path style="opacity:1" fill="#63acca" d="M 46.5,57.5 C 48.1667,58.1667 49.8333,58.8333 51.5,59.5C 51.7373,60.791 51.404,61.791 50.5,62.5C 49.2497,60.8459 47.9163,59.1793 46.5,57.5 Z"/></g>
<g><path style="opacity:1" fill="#1598d0" d="M 146.5,58.5 C 147.833,58.5 149.167,58.5 150.5,58.5C 156.108,60.075 161.775,61.7416 167.5,63.5C 166.37,64.6223 165.703,65.9557 165.5,67.5C 163.833,69.8333 161.833,71.8333 159.5,73.5C 157.589,74.075 155.922,75.075 154.5,76.5C 147.644,74.7404 140.978,72.4071 134.5,69.5C 132.432,68.6252 130.432,67.4585 128.5,66C 129.167,65.6667 129.833,65.3333 130.5,65C 129.449,63.6152 128.116,62.6152 126.5,62C 127.337,60.9887 127.67,59.8221 127.5,58.5C 122.78,58.4251 118.28,57.4251 114,55.5C 113.586,55.9574 113.086,56.2907 112.5,56.5C 110.646,55.8244 110.313,54.8244 111.5,53.5C 123.194,55.5852 134.86,57.2519 146.5,58.5 Z"/></g>
<g><path style="opacity:1" fill="#9d9f9e" d="M 221.5,25.5 C 219.284,28.0766 216.951,30.4099 214.5,32.5C 212.393,34.7267 210.06,36.7267 207.5,38.5C 203.829,40.8475 200.496,43.5142 197.5,46.5C 194.338,47.904 191.671,50.0707 189.5,53C 187.122,53.5112 184.788,54.1779 182.5,55C 179.556,58.2952 177.056,62.4618 175,67.5C 171.954,71.1739 168.954,74.8405 166,78.5C 157.325,87.3417 148.492,96.0083 139.5,104.5C 132.067,110.688 125.067,117.355 118.5,124.5C 116.938,124.733 115.605,125.4 114.5,126.5C 116.046,122.787 118.713,120.287 122.5,119C 137.126,104.878 151.126,90.3783 164.5,75.5C 166.297,73.0447 167.63,70.378 168.5,67.5C 170.252,65.7541 171.585,63.7541 172.5,61.5C 172.5,61.1667 172.5,60.8333 172.5,60.5C 176.539,55.46 181.206,51.1266 186.5,47.5C 190.167,44.5 193.5,41.1667 196.5,37.5C 198.5,35.8333 200.5,34.1667 202.5,32.5C 204.001,31.2485 205.668,30.2485 207.5,29.5C 207.369,30.3764 207.702,31.0431 208.5,31.5C 212.867,29.4394 217.2,27.4394 221.5,25.5 Z"/></g>
<g><path style="opacity:1" fill="#7cb8d1" d="M 144.5,56.5 C 149.444,56.7538 154.111,57.7538 158.5,59.5C 155.794,59.4249 153.127,59.0916 150.5,58.5C 149.167,58.5 147.833,58.5 146.5,58.5C 145.833,57.8333 145.167,57.1667 144.5,56.5 Z"/></g>
<g><path style="opacity:1" fill="#99c0d1" d="M 163.5,59.5 C 166.482,59.9629 169.482,60.2962 172.5,60.5C 172.5,60.8333 172.5,61.1667 172.5,61.5C 171.833,61.5 171.167,61.5 170.5,61.5C 167.848,61.5905 165.515,60.9238 163.5,59.5 Z"/></g>
<g><path style="opacity:1" fill="#3894bd" d="M 150.5,58.5 C 153.127,59.0916 155.794,59.4249 158.5,59.5C 160.167,59.5 161.833,59.5 163.5,59.5C 165.515,60.9238 167.848,61.5905 170.5,61.5C 169.581,64.0892 167.914,66.0892 165.5,67.5C 165.703,65.9557 166.37,64.6223 167.5,63.5C 161.775,61.7416 156.108,60.075 150.5,58.5 Z"/></g>
<g><path style="opacity:1" fill="#1287b9" d="M 58.5,61.5 C 63.3013,62.0664 66.968,64.3998 69.5,68.5C 65.3171,66.9125 61.6505,64.5792 58.5,61.5 Z"/></g>
<g><path style="opacity:1" fill="#87b2c3" d="M 50.5,62.5 C 50.4326,63.9587 50.7659,65.2921 51.5,66.5C 50.4138,66.38 49.7472,65.7133 49.5,64.5C 49.5427,63.5836 49.8761,62.9169 50.5,62.5 Z"/></g>
<g><path style="opacity:1" fill="#98bfcf" d="M 51.5,66.5 C 53.0269,66.427 54.0269,67.0937 54.5,68.5C 52.9731,68.573 51.9731,67.9063 51.5,66.5 Z"/></g>
<g><path style="opacity:1" fill="#24769b" d="M 51.5,59.5 C 53.099,59.2322 54.4324,59.5655 55.5,60.5C 54.5,60.5 53.5,60.5 52.5,60.5C 52.3505,61.552 52.5172,62.552 53,63.5C 58.2452,65.5189 62.4118,68.8522 65.5,73.5C 64.8333,73.5 64.1667,73.5 63.5,73.5C 61.9382,73.2671 60.6049,72.6005 59.5,71.5C 58.656,69.2407 56.9893,68.2407 54.5,68.5C 54.0269,67.0937 53.0269,66.427 51.5,66.5C 50.7659,65.2921 50.4326,63.9587 50.5,62.5C 51.404,61.791 51.7373,60.791 51.5,59.5 Z"/></g>
<g><path style="opacity:1" fill="#c0c1c0" d="M 207.5,38.5 C 199.867,46.2993 192.033,53.966 184,61.5C 177.51,69.1266 171.01,76.7933 164.5,84.5C 157.775,91.5602 150.441,97.8935 142.5,103.5C 161.197,84.8037 179.53,65.8037 197.5,46.5C 200.496,43.5142 203.829,40.8475 207.5,38.5 Z"/></g>
<g><path style="opacity:1" fill="#1183b3" d="M 69.5,68.5 C 73.1999,68.5364 75.8665,70.2031 77.5,73.5C 74.4887,72.3307 71.822,70.664 69.5,68.5 Z"/></g>
<g><path style="opacity:1" fill="#84b3c7" d="M 54.5,68.5 C 56.9893,68.2407 58.656,69.2407 59.5,71.5C 57.5659,70.8897 55.8993,69.8897 54.5,68.5 Z"/></g>
<g><path style="opacity:1" fill="#075b7e" d="M 55.5,60.5 C 56.391,61.1098 57.391,61.4431 58.5,61.5C 61.6505,64.5792 65.3171,66.9125 69.5,68.5C 71.822,70.664 74.4887,72.3307 77.5,73.5C 81.2951,76.9045 85.6285,79.5712 90.5,81.5C 90.5,82.8333 90.5,84.1667 90.5,85.5C 89.448,85.6495 88.448,85.4828 87.5,85C 83.307,81.7418 78.9737,78.7418 74.5,76C 71.6473,74.5699 68.6473,73.7366 65.5,73.5C 62.4118,68.8522 58.2452,65.5189 53,63.5C 52.5172,62.552 52.3505,61.552 52.5,60.5C 53.5,60.5 54.5,60.5 55.5,60.5 Z"/></g>
<g><path style="opacity:1" fill="#43b7e6" d="M 37.5,33.5 C 69.1046,47.4314 101.438,59.4314 134.5,69.5C 140.978,72.4071 147.644,74.7404 154.5,76.5C 149.741,81.2496 145.408,86.2496 141.5,91.5C 137.874,93.4593 134.874,96.126 132.5,99.5C 132.141,97.2341 132.808,95.4007 134.5,94C 134.167,93.6667 133.833,93.3333 133.5,93C 135.294,91.5272 136.96,90.6938 138.5,90.5C 136.135,87.6498 133.135,85.8164 129.5,85C 130.5,84.6667 131.5,84.3333 132.5,84C 129.422,84.0655 126.422,83.8988 123.5,83.5C 121.502,82.3331 120.002,80.6664 119,78.5C 117.062,79.8602 115.396,79.5268 114,77.5C 113.692,78.3081 113.192,78.9747 112.5,79.5C 110.913,77.9149 110.08,76.2482 110,74.5C 109.667,74.8333 109.333,75.1667 109,75.5C 108,74.1667 107,72.8333 106,71.5C 102.925,71.6323 100.258,70.299 98,67.5C 97.586,67.9574 97.086,68.2907 96.5,68.5C 95.2888,67.7261 95.2888,66.8928 96.5,66C 94.5219,63.1155 91.8552,61.7821 88.5,62C 89.731,63.1827 89.731,64.3493 88.5,65.5C 85.9528,64.0664 83.6195,62.3998 81.5,60.5C 78.6106,61.9656 77.2772,60.9656 77.5,57.5C 67.9342,56.1405 58.9342,52.9739 50.5,48C 47.4879,44.7975 43.9879,42.2975 40,40.5C 39.6667,40.8333 39.3333,41.1667 39,41.5C 34.9379,38.2409 32.2712,34.9076 31,31.5C 32.897,33.0163 35.0637,33.683 37.5,33.5 Z"/></g>
<g><path style="opacity:1" fill="#79acc2" d="M 63.5,73.5 C 64.1667,73.5 64.8333,73.5 65.5,73.5C 67.751,74.8175 69.751,76.4842 71.5,78.5C 68.3288,77.5638 65.6621,75.8971 63.5,73.5 Z"/></g>
<g><path style="opacity:1" fill="#1d769d" d="M 65.5,73.5 C 68.6473,73.7366 71.6473,74.5699 74.5,76C 78.9737,78.7418 83.307,81.7418 87.5,85C 88.448,85.4828 89.448,85.6495 90.5,85.5C 90.5,84.1667 90.5,82.8333 90.5,81.5C 91.4967,84.005 91.4967,86.6717 90.5,89.5C 89.8333,89.8333 89.1667,90.1667 88.5,90.5C 88.5,89.1667 88.5,87.8333 88.5,86.5C 87.1667,86.5 85.8333,86.5 84.5,86.5C 83.2878,83.8932 81.2878,82.2265 78.5,81.5C 77.8333,81.5 77.1667,81.5 76.5,81.5C 76.0269,80.0937 75.0269,79.427 73.5,79.5C 72.5084,79.6716 71.8417,79.3382 71.5,78.5C 69.751,76.4842 67.751,74.8175 65.5,73.5 Z"/></g>
<g><path style="opacity:1" fill="#aeaead" d="M 197.5,46.5 C 179.53,65.8037 161.197,84.8037 142.5,103.5C 141.833,103.833 141.167,104.167 140.5,104.5C 140.167,104.5 139.833,104.5 139.5,104.5C 148.492,96.0083 157.325,87.3417 166,78.5C 168.954,74.8405 171.954,71.1739 175,67.5C 177.056,62.4618 179.556,58.2952 182.5,55C 184.788,54.1779 187.122,53.5112 189.5,53C 191.671,50.0707 194.338,47.904 197.5,46.5 Z"/></g>
<g><path style="opacity:1" fill="#6b7f85" d="M 170.5,61.5 C 171.167,61.5 171.833,61.5 172.5,61.5C 171.585,63.7541 170.252,65.7541 168.5,67.5C 161.167,74.5 153.833,81.5 146.5,88.5C 150.437,83.2243 154.771,78.2243 159.5,73.5C 161.833,71.8333 163.833,69.8333 165.5,67.5C 167.914,66.0892 169.581,64.0892 170.5,61.5 Z"/></g>
<g><path style="opacity:1" fill="#82b4c8" d="M 73.5,79.5 C 75.0269,79.427 76.0269,80.0937 76.5,81.5C 74.9731,81.573 73.9731,80.9063 73.5,79.5 Z"/></g>
<g><path style="opacity:1" fill="#4f889e" d="M 159.5,73.5 C 154.771,78.2243 150.437,83.2243 146.5,88.5C 144.999,89.7515 143.332,90.7515 141.5,91.5C 145.408,86.2496 149.741,81.2496 154.5,76.5C 155.922,75.075 157.589,74.075 159.5,73.5 Z"/></g>
<g><path style="opacity:1" fill="#8ebccf" d="M 76.5,81.5 C 77.1667,81.5 77.8333,81.5 78.5,81.5C 78.8333,82.1667 79.1667,82.8333 79.5,83.5C 77.9731,83.573 76.9731,82.9063 76.5,81.5 Z"/></g>
<g><path style="opacity:1" fill="#609db8" d="M 78.5,81.5 C 81.2878,82.2265 83.2878,83.8932 84.5,86.5C 82.5659,85.8897 80.8993,84.8897 79.5,83.5C 79.1667,82.8333 78.8333,82.1667 78.5,81.5 Z"/></g>
<g><path style="opacity:1" fill="#38b2e5" d="M 37.5,33.5 C 35.0637,33.683 32.897,33.0163 31,31.5C 32.2712,34.9076 34.9379,38.2409 39,41.5C 39.3333,41.1667 39.6667,40.8333 40,40.5C 43.9879,42.2975 47.4879,44.7975 50.5,48C 58.9342,52.9739 67.9342,56.1405 77.5,57.5C 77.2772,60.9656 78.6106,61.9656 81.5,60.5C 83.6195,62.3998 85.9528,64.0664 88.5,65.5C 89.731,64.3493 89.731,63.1827 88.5,62C 91.8552,61.7821 94.5219,63.1155 96.5,66C 95.2888,66.8928 95.2888,67.7261 96.5,68.5C 97.086,68.2907 97.586,67.9574 98,67.5C 100.258,70.299 102.925,71.6323 106,71.5C 107,72.8333 108,74.1667 109,75.5C 109.333,75.1667 109.667,74.8333 110,74.5C 110.08,76.2482 110.913,77.9149 112.5,79.5C 113.192,78.9747 113.692,78.3081 114,77.5C 115.396,79.5268 117.062,79.8602 119,78.5C 120.002,80.6664 121.502,82.3331 123.5,83.5C 126.422,83.8988 129.422,84.0655 132.5,84C 131.5,84.3333 130.5,84.6667 129.5,85C 133.135,85.8164 136.135,87.6498 138.5,90.5C 136.96,90.6938 135.294,91.5272 133.5,93C 133.833,93.3333 134.167,93.6667 134.5,94C 132.808,95.4007 132.141,97.2341 132.5,99.5C 130.833,101.833 128.833,103.833 126.5,105.5C 114.213,96.2273 101.88,86.894 89.5,77.5C 85.53,75.8465 81.53,74.5132 77.5,73.5C 75.8665,70.2031 73.1999,68.5364 69.5,68.5C 66.968,64.3998 63.3013,62.0664 58.5,61.5C 57.9332,59.9705 57.2666,58.4705 56.5,57C 44.2489,49.9585 32.0822,42.7918 20,35.5C 20.1081,31.7137 22.1081,29.3804 26,28.5C 30.1466,29.6481 33.98,31.3148 37.5,33.5 Z"/></g>
<g><path style="opacity:1" fill="#5c8da2" d="M 84.5,86.5 C 85.8333,86.5 87.1667,86.5 88.5,86.5C 88.5,87.8333 88.5,89.1667 88.5,90.5C 88.6287,92.2161 88.962,93.8828 89.5,95.5C 86.2024,93.5926 85.5358,90.9259 87.5,87.5C 86.209,87.7373 85.209,87.404 84.5,86.5 Z"/></g>
<g><path style="opacity:1" fill="#818281" d="M 267.5,39.5 C 266.216,42.4018 265.216,45.4018 264.5,48.5C 262.935,50.5093 261.935,52.8427 261.5,55.5C 254.631,66.0456 246.964,76.0456 238.5,85.5C 234.102,88.8947 230.436,92.8947 227.5,97.5C 223.833,100.5 220.5,103.833 217.5,107.5C 216.833,107.833 216.167,108.167 215.5,108.5C 211.9,110.43 208.9,113.097 206.5,116.5C 204.897,116.688 203.563,116.188 202.5,115C 204.007,114.163 204.507,112.996 204,111.5C 203.184,112.823 202.017,113.489 200.5,113.5C 206.649,106.188 213.649,99.6878 221.5,94C 223.046,91.7432 224.712,89.5765 226.5,87.5C 233.764,80.4079 241.264,73.4079 249,66.5C 251.483,63.8607 253.316,60.8607 254.5,57.5C 256.761,56.4103 258.594,54.7437 260,52.5C 261.829,45.1826 263.663,37.8492 265.5,30.5C 266.086,30.7093 266.586,31.0426 267,31.5C 267.497,34.146 267.664,36.8127 267.5,39.5 Z"/></g>
<g><path style="opacity:1" fill="#cbcdcd" d="M 238.5,85.5 C 235.564,90.1053 231.898,94.1053 227.5,97.5C 230.436,92.8947 234.102,88.8947 238.5,85.5 Z"/></g>
<g><path style="opacity:1" fill="#128dc1" d="M 77.5,73.5 C 81.53,74.5132 85.53,75.8465 89.5,77.5C 101.88,86.894 114.213,96.2273 126.5,105.5C 123.495,108.318 120.828,111.484 118.5,115C 117.207,115.49 115.873,115.657 114.5,115.5C 106.84,106.507 98.8397,97.8403 90.5,89.5C 91.4967,86.6717 91.4967,84.005 90.5,81.5C 85.6285,79.5712 81.2951,76.9045 77.5,73.5 Z"/></g>
<g><path style="opacity:1" fill="#bababa" d="M 246.5,50.5 C 246.232,52.099 246.566,53.4324 247.5,54.5C 244.999,59.8524 241.832,64.8524 238,69.5C 232.302,75.5325 226.302,81.1991 220,86.5C 219.667,87.5 219.333,88.5 219,89.5C 208.167,99.6667 197.333,109.833 186.5,120C 182.997,122.022 179.663,124.189 176.5,126.5C 181.167,121.833 185.833,117.167 190.5,112.5C 196.929,104.911 204.263,98.078 212.5,92C 222.668,80.9991 233.001,70.1658 243.5,59.5C 244.747,57.677 245.414,55.677 245.5,53.5C 245.263,52.209 245.596,51.209 246.5,50.5 Z"/></g>
<g><path style="opacity:1" fill="#d4d4d4" d="M 245.5,53.5 C 245.414,55.677 244.747,57.677 243.5,59.5C 233.001,70.1658 222.668,80.9991 212.5,92C 204.263,98.078 196.929,104.911 190.5,112.5C 188.167,113.833 185.833,115.167 183.5,116.5C 168.638,124.182 154.138,132.515 140,141.5C 138.493,140.465 136.993,140.632 135.5,142C 128.646,147.255 121.646,152.255 114.5,157C 108.79,162.842 103.123,168.675 97.5,174.5C 96.914,174.291 96.414,173.957 96,173.5C 94.0982,163.371 96.9315,154.704 104.5,147.5C 104.5,148.167 104.5,148.833 104.5,149.5C 101.819,152.192 100.486,155.525 100.5,159.5C 101.873,159.657 103.207,159.49 104.5,159C 117.325,147.841 130.991,137.841 145.5,129C 169.384,120.411 190.717,107.744 209.5,91C 221.276,78.3887 233.276,65.8887 245.5,53.5 Z"/></g>
<g><path style="opacity:1" fill="#176485" d="M 90.5,89.5 C 98.8397,97.8403 106.84,106.507 114.5,115.5C 113.833,115.5 113.5,115.833 113.5,116.5C 110.697,116.039 108.363,114.705 106.5,112.5C 105.5,110.833 104.167,109.5 102.5,108.5C 101.167,105.167 98.8333,102.833 95.5,101.5C 93.8333,99.1667 91.8333,97.1667 89.5,95.5C 88.962,93.8828 88.6287,92.2161 88.5,90.5C 89.1667,90.1667 89.8333,89.8333 90.5,89.5 Z"/></g>
<g><path style="opacity:1" fill="#789dad" d="M 95.5,101.5 C 98.8333,102.833 101.167,105.167 102.5,108.5C 99.8333,106.5 97.5,104.167 95.5,101.5 Z"/></g>
<g><path style="opacity:1" fill="#909090" d="M 254.5,57.5 C 253.316,60.8607 251.483,63.8607 249,66.5C 241.264,73.4079 233.764,80.4079 226.5,87.5C 224.712,89.5765 223.046,91.7432 221.5,94C 213.649,99.6878 206.649,106.188 200.5,113.5C 197.571,116.636 194.238,119.303 190.5,121.5C 194.089,117.374 197.922,113.374 202,109.5C 203.082,106.352 205.249,104.186 208.5,103C 219.315,91.6832 229.982,80.1832 240.5,68.5C 245.778,65.5494 250.444,61.8827 254.5,57.5 Z"/></g>
<g><path style="opacity:1" fill="#447b91" d="M 141.5,91.5 C 134.012,100.155 126.345,108.655 118.5,117C 117.552,117.483 116.552,117.649 115.5,117.5C 115.158,116.662 114.492,116.328 113.5,116.5C 113.5,115.833 113.833,115.5 114.5,115.5C 115.873,115.657 117.207,115.49 118.5,115C 120.828,111.484 123.495,108.318 126.5,105.5C 128.833,103.833 130.833,101.833 132.5,99.5C 134.874,96.126 137.874,93.4593 141.5,91.5 Z"/></g>
<g><path style="opacity:1" fill="#95b6c4" d="M 217.5,107.5 C 217.5,108.167 217.5,108.833 217.5,109.5C 217.5,110.167 217.5,110.833 217.5,111.5C 216.167,111.5 214.833,111.5 213.5,111.5C 214.167,110.5 214.833,109.5 215.5,108.5C 216.167,108.167 216.833,107.833 217.5,107.5 Z"/></g>
<g><path style="opacity:1" fill="#b7cdd6" d="M 106.5,112.5 C 108.363,114.705 110.697,116.039 113.5,116.5C 114.492,116.328 115.158,116.662 115.5,117.5C 115.5,118.167 115.167,118.5 114.5,118.5C 112.657,117.717 110.657,117.05 108.5,116.5C 107.295,115.423 106.628,114.09 106.5,112.5 Z"/></g>
<g><path style="opacity:1" fill="#c9cac9" d="M 183.5,116.5 C 181.854,118.812 179.854,120.812 177.5,122.5C 163.61,130.898 149.61,139.065 135.5,147C 127.38,154.126 118.713,160.459 109.5,166C 106.973,168.527 104.473,171.027 102,173.5C 101.82,175.488 101.986,177.488 102.5,179.5C 101.833,179.5 101.5,179.833 101.5,180.5C 100.5,180.833 99.8333,181.5 99.5,182.5C 99.5,182.833 99.5,183.167 99.5,183.5C 94.8333,187.5 90.5,191.833 86.5,196.5C 82.8333,199.5 79.5,202.833 76.5,206.5C 75.1667,207.167 74.1667,208.167 73.5,209.5C 68.8498,211.629 64.8498,214.795 61.5,219C 60.6683,219.688 60.0016,219.521 59.5,218.5C 65.2237,210.785 71.557,203.785 78.5,197.5C 81.1667,194.5 83.8333,191.5 86.5,188.5C 90.2976,185.204 93.9643,181.704 97.5,178C 94.8578,179.739 91.8578,180.906 88.5,181.5C 89.4896,175.52 90.4896,169.52 91.5,163.5C 92.926,159.165 95.2593,155.498 98.5,152.5C 102.242,146.345 106.908,141.012 112.5,136.5C 109.833,140.167 107.167,143.833 104.5,147.5C 96.9315,154.704 94.0982,163.371 96,173.5C 96.414,173.957 96.914,174.291 97.5,174.5C 103.123,168.675 108.79,162.842 114.5,157C 121.646,152.255 128.646,147.255 135.5,142C 136.993,140.632 138.493,140.465 140,141.5C 154.138,132.515 168.638,124.182 183.5,116.5 Z"/></g>
<g><path style="opacity:1" fill="#4c6a74" d="M 215.5,108.5 C 214.833,109.5 214.167,110.5 213.5,111.5C 209.194,116.473 204.527,121.14 199.5,125.5C 201.427,122.233 203.761,119.233 206.5,116.5C 208.9,113.097 211.9,110.43 215.5,108.5 Z"/></g>
<g><path style="opacity:1" fill="#c9cccd" d="M 114.5,119.5 C 113.167,121.5 111.5,123.167 109.5,124.5C 110.167,121.833 111.833,120.167 114.5,119.5 Z"/></g>
<g><path style="opacity:1" fill="#37b0e4" d="M 220.5,131.5 C 220.5,131.833 220.5,132.167 220.5,132.5C 220.565,135.428 221.232,138.095 222.5,140.5C 222.5,142.833 222.5,145.167 222.5,147.5C 222.5,147.833 222.5,148.167 222.5,148.5C 221.778,148.082 221.278,147.416 221,146.5C 217.667,147.833 214.333,147.833 211,146.5C 210.505,148.473 210.338,150.473 210.5,152.5C 209.833,150.833 209.167,149.167 208.5,147.5C 205.557,140.062 203.724,132.396 203,124.5C 206.204,121.631 209.037,118.465 211.5,115C 212.784,114.316 213.951,114.483 215,115.5C 215.333,114.833 215.667,114.167 216,113.5C 217.418,119.089 218.418,124.756 219,130.5C 219.383,131.056 219.883,131.389 220.5,131.5 Z"/></g>
<g><path style="opacity:1" fill="#c2c2c2" d="M 190.5,112.5 C 185.833,117.167 181.167,121.833 176.5,126.5C 176.167,126.5 175.833,126.5 175.5,126.5C 164.319,134.779 152.652,142.612 140.5,150C 135.487,155.581 129.487,159.915 122.5,163C 117.506,168.035 111.839,172.368 105.5,176C 104.177,176.816 103.511,177.983 103.5,179.5C 103.167,179.5 102.833,179.5 102.5,179.5C 101.986,177.488 101.82,175.488 102,173.5C 104.473,171.027 106.973,168.527 109.5,166C 118.713,160.459 127.38,154.126 135.5,147C 149.61,139.065 163.61,130.898 177.5,122.5C 179.854,120.812 181.854,118.812 183.5,116.5C 185.833,115.167 188.167,113.833 190.5,112.5 Z"/></g>
<g><path style="opacity:1" fill="#daf1f9" d="M 217.5,109.5 C 219.561,114.284 221.061,119.284 222,124.5C 223.582,137.098 225.416,149.432 227.5,161.5C 227.768,163.099 227.434,164.432 226.5,165.5C 225.833,165.5 225.5,165.167 225.5,164.5C 225.5,163.167 225.5,161.833 225.5,160.5C 225.575,155.808 224.575,151.474 222.5,147.5C 222.5,145.167 222.5,142.833 222.5,140.5C 222.706,137.505 222.04,134.838 220.5,132.5C 220.5,132.167 220.5,131.833 220.5,131.5C 219.491,124.817 218.491,118.15 217.5,111.5C 217.5,110.833 217.5,110.167 217.5,109.5 Z"/></g>
<g><path style="opacity:1" fill="#8a8e8d" d="M 168.5,67.5 C 167.63,70.378 166.297,73.0447 164.5,75.5C 151.126,90.3783 137.126,104.878 122.5,119C 118.713,120.287 116.046,122.787 114.5,126.5C 113.833,126.5 113.5,126.833 113.5,127.5C 107.916,132.582 102.416,137.915 97,143.5C 96.5357,142.906 96.369,142.239 96.5,141.5C 97.1098,140.609 97.4431,139.609 97.5,138.5C 101.49,133.874 105.49,129.207 109.5,124.5C 111.5,123.167 113.167,121.5 114.5,119.5C 114.5,119.167 114.5,118.833 114.5,118.5C 115.167,118.5 115.5,118.167 115.5,117.5C 116.552,117.649 117.552,117.483 118.5,117C 126.345,108.655 134.012,100.155 141.5,91.5C 143.332,90.7515 144.999,89.7515 146.5,88.5C 153.833,81.5 161.167,74.5 168.5,67.5 Z"/></g>
<g><path style="opacity:1" fill="#757979" d="M 206.5,116.5 C 203.761,119.233 201.427,122.233 199.5,125.5C 197.167,127.167 195.167,129.167 193.5,131.5C 188.5,134.5 184.5,138.5 181.5,143.5C 179.97,144.211 178.637,145.211 177.5,146.5C 177.167,146.5 176.833,146.5 176.5,146.5C 176.201,144.396 176.534,142.396 177.5,140.5C 179.5,138.167 181.5,135.833 183.5,133.5C 183.03,132.537 182.363,132.537 181.5,133.5C 181.892,131.821 182.392,130.154 183,128.5C 185.998,126.667 188.498,124.334 190.5,121.5C 194.238,119.303 197.571,116.636 200.5,113.5C 202.017,113.489 203.184,112.823 204,111.5C 204.507,112.996 204.007,114.163 202.5,115C 203.563,116.188 204.897,116.688 206.5,116.5 Z"/></g>
<g><path style="opacity:1" fill="#5dbee7" d="M 213.5,111.5 C 214.833,111.5 216.167,111.5 217.5,111.5C 218.491,118.15 219.491,124.817 220.5,131.5C 219.883,131.389 219.383,131.056 219,130.5C 218.418,124.756 217.418,119.089 216,113.5C 215.667,114.167 215.333,114.833 215,115.5C 213.951,114.483 212.784,114.316 211.5,115C 209.037,118.465 206.204,121.631 203,124.5C 203.724,132.396 205.557,140.062 208.5,147.5C 208.662,149.527 208.495,151.527 208,153.5C 205.676,152.155 203.342,151.822 201,152.5C 199.992,150.741 198.492,149.574 196.5,149C 197.458,147.853 197.125,146.853 195.5,146C 193.5,145.667 191.5,145.333 189.5,145C 189.384,143.732 189.051,142.398 188.5,141C 186.811,141.134 185.144,141.634 183.5,142.5C 186.833,138.833 190.167,135.167 193.5,131.5C 195.167,129.167 197.167,127.167 199.5,125.5C 204.527,121.14 209.194,116.473 213.5,111.5 Z"/></g>
<g><path style="opacity:1" fill="#b7b7b7" d="M 175.5,126.5 C 171.112,132.22 165.778,136.887 159.5,140.5C 149.603,145.29 140.936,151.79 133.5,160C 127.219,163.82 121.219,168.154 115.5,173C 111.845,175.827 107.845,177.993 103.5,179.5C 103.511,177.983 104.177,176.816 105.5,176C 111.839,172.368 117.506,168.035 122.5,163C 129.487,159.915 135.487,155.581 140.5,150C 152.652,142.612 164.319,134.779 175.5,126.5 Z"/></g>
<g><path style="opacity:1" fill="#4e8195" d="M 193.5,131.5 C 190.167,135.167 186.833,138.833 183.5,142.5C 182.833,142.833 182.167,143.167 181.5,143.5C 184.5,138.5 188.5,134.5 193.5,131.5 Z"/></g>
<g><path style="opacity:1" fill="#aadef4" d="M 220.5,132.5 C 222.04,134.838 222.706,137.505 222.5,140.5C 221.232,138.095 220.565,135.428 220.5,132.5 Z"/></g>
<g><path style="opacity:1" fill="#bcbdbb" d="M 139.5,104.5 C 139.833,104.5 140.167,104.5 140.5,104.5C 137.501,108.332 134.001,111.665 130,114.5C 127.92,117.065 126.087,119.732 124.5,122.5C 120.953,127.62 116.953,132.286 112.5,136.5C 106.908,141.012 102.242,146.345 98.5,152.5C 98.5191,150.94 98.8524,149.44 99.5,148C 105.267,139.731 111.6,131.898 118.5,124.5C 125.067,117.355 132.067,110.688 139.5,104.5 Z"/></g>
<g><path style="opacity:1" fill="#c5c6c5" d="M 97.5,138.5 C 97.4431,139.609 97.1098,140.609 96.5,141.5C 94.5,143.833 92.5,146.167 90.5,148.5C 91.8514,144.458 94.1848,141.125 97.5,138.5 Z"/></g>
<g><path style="opacity:1" fill="#b7b8b7" d="M 256.5,149.5 C 249.757,149.622 244.257,152.288 240,157.5C 239.51,158.793 239.343,160.127 239.5,161.5C 238.5,161.5 237.5,161.5 236.5,161.5C 236.5,159.833 236.5,158.167 236.5,156.5C 240.119,151.871 243.786,147.204 247.5,142.5C 245.955,141.548 244.288,141.215 242.5,141.5C 242.866,140.305 243.699,139.639 245,139.5C 250.272,141.277 254.105,144.611 256.5,149.5 Z"/></g>
<g><path style="opacity:1" fill="#b4b7b6" d="M 239.5,145.5 C 238.396,147.389 237.063,149.055 235.5,150.5C 235.67,147.796 237.003,146.129 239.5,145.5 Z"/></g>
<g><path style="opacity:1" fill="#4698ba" d="M 181.5,143.5 C 180.89,144.391 180.557,145.391 180.5,146.5C 178.167,148.167 176.167,150.167 174.5,152.5C 174.167,152.5 173.833,152.5 173.5,152.5C 173.5,152.167 173.5,151.833 173.5,151.5C 174.833,149.833 176.167,148.167 177.5,146.5C 178.637,145.211 179.97,144.211 181.5,143.5 Z"/></g>
<g><path style="opacity:1" fill="#34b1e5" d="M 180.5,146.5 C 182.124,146.36 183.29,147.027 184,148.5C 184.333,148.167 184.667,147.833 185,147.5C 189.061,150.995 193.061,154.662 197,158.5C 197.414,158.043 197.914,157.709 198.5,157.5C 201.638,158.895 204.805,160.228 208,161.5C 210.637,160.899 211.804,159.233 211.5,156.5C 212.167,157.5 212.833,158.5 213.5,159.5C 214.387,163.419 215.721,167.085 217.5,170.5C 218.065,174.537 219.399,178.203 221.5,181.5C 222.167,184.5 222.833,187.5 223.5,190.5C 223.649,191.552 223.483,192.552 223,193.5C 221.139,191.112 219.806,188.446 219,185.5C 217.59,184.213 216.09,183.046 214.5,182C 214.833,181.667 215.167,181.333 215.5,181C 213.725,178.055 211.391,175.555 208.5,173.5C 201.53,169.029 194.696,164.362 188,159.5C 186.16,160.833 185.66,160.666 186.5,159C 185.747,157.513 184.914,157.346 184,158.5C 183.07,156.448 181.57,154.948 179.5,154C 179.833,153.667 180.167,153.333 180.5,153C 178.613,153.423 176.613,153.256 174.5,152.5C 176.167,150.167 178.167,148.167 180.5,146.5 Z"/></g>
<g><path style="opacity:1" fill="#acaeac" d="M 118.5,124.5 C 111.6,131.898 105.267,139.731 99.5,148C 98.8524,149.44 98.5191,150.94 98.5,152.5C 95.2593,155.498 92.926,159.165 91.5,163.5C 90.4896,169.52 89.4896,175.52 88.5,181.5C 91.8578,180.906 94.8578,179.739 97.5,178C 93.9643,181.704 90.2976,185.204 86.5,188.5C 85.791,187.596 84.791,187.263 83.5,187.5C 83.5,184.833 83.5,182.167 83.5,179.5C 85.083,178.064 86.583,176.398 88,174.5C 89.2031,167.818 90.5364,161.151 92,154.5C 94.7301,149.903 97.7301,145.569 101,141.5C 105.745,137.26 109.912,132.593 113.5,127.5C 113.5,126.833 113.833,126.5 114.5,126.5C 115.605,125.4 116.938,124.733 118.5,124.5 Z"/></g>
<g><path style="opacity:1" fill="#7d7d7c" d="M 180.5,133.5 C 169.22,143.775 157.887,154.108 146.5,164.5C 146.369,163.761 146.536,163.094 147,162.5C 156.113,154.544 164.613,146.044 172.5,137C 175.336,136.079 178.002,134.912 180.5,133.5 Z"/></g>
<g><path style="opacity:1" fill="#48b8e7" d="M 208.5,147.5 C 209.167,149.167 209.833,150.833 210.5,152.5C 211.234,153.708 211.567,155.041 211.5,156.5C 211.804,159.233 210.637,160.899 208,161.5C 204.805,160.228 201.638,158.895 198.5,157.5C 197.914,157.709 197.414,158.043 197,158.5C 193.061,154.662 189.061,150.995 185,147.5C 184.667,147.833 184.333,148.167 184,148.5C 183.29,147.027 182.124,146.36 180.5,146.5C 180.557,145.391 180.89,144.391 181.5,143.5C 182.167,143.167 182.833,142.833 183.5,142.5C 185.144,141.634 186.811,141.134 188.5,141C 189.051,142.398 189.384,143.732 189.5,145C 191.5,145.333 193.5,145.667 195.5,146C 197.125,146.853 197.458,147.853 196.5,149C 198.492,149.574 199.992,150.741 201,152.5C 203.342,151.822 205.676,152.155 208,153.5C 208.495,151.527 208.662,149.527 208.5,147.5 Z"/></g>
<g><path style="opacity:1" fill="#787a7a" d="M 242.5,141.5 C 244.288,141.215 245.955,141.548 247.5,142.5C 243.786,147.204 240.119,151.871 236.5,156.5C 234.764,160.26 232.264,163.594 229,166.5C 228.503,164.19 228.337,161.857 228.5,159.5C 228.5,159.167 228.5,158.833 228.5,158.5C 230.914,157.089 232.581,155.089 233.5,152.5C 233.833,151.5 234.5,150.833 235.5,150.5C 237.063,149.055 238.396,147.389 239.5,145.5C 240.026,143.77 241.026,142.436 242.5,141.5 Z"/></g>
<g><path style="opacity:1" fill="#28aae1" d="M 173.5,152.5 C 173.833,152.5 174.167,152.5 174.5,152.5C 176.613,153.256 178.613,153.423 180.5,153C 180.167,153.333 179.833,153.667 179.5,154C 181.57,154.948 183.07,156.448 184,158.5C 184.914,157.346 185.747,157.513 186.5,159C 185.66,160.666 186.16,160.833 188,159.5C 194.696,164.362 201.53,169.029 208.5,173.5C 211.391,175.555 213.725,178.055 215.5,181C 215.167,181.333 214.833,181.667 214.5,182C 216.09,183.046 217.59,184.213 219,185.5C 219.806,188.446 221.139,191.112 223,193.5C 223.483,192.552 223.649,191.552 223.5,190.5C 226.027,195.415 228.36,200.415 230.5,205.5C 233.655,214.466 237.321,223.132 241.5,231.5C 243.29,236.866 245.29,242.199 247.5,247.5C 246.504,247.586 245.671,247.252 245,246.5C 244.178,244.212 243.511,241.878 243,239.5C 241.365,235.818 239.198,232.485 236.5,229.5C 233.884,220.487 230.384,211.82 226,203.5C 224.719,203.619 223.552,203.119 222.5,202C 223.451,201.282 223.617,200.449 223,199.5C 216.261,190.448 209.261,181.781 202,173.5C 201.667,173.833 201.333,174.167 201,174.5C 197.375,171.842 193.875,169.009 190.5,166C 188.871,165.415 187.371,164.581 186,163.5C 185.754,164.721 184.92,165.721 183.5,166.5C 179.754,162.094 176.42,157.427 173.5,152.5 Z"/></g>
<g><path style="opacity:1" fill="#17a2dc" d="M 222.5,148.5 C 222.5,149.5 222.5,150.5 222.5,151.5C 222.167,153.5 221.833,155.5 221.5,157.5C 218.794,157.425 216.127,157.092 213.5,156.5C 213.5,157.5 213.5,158.5 213.5,159.5C 212.833,158.5 212.167,157.5 211.5,156.5C 211.567,155.041 211.234,153.708 210.5,152.5C 210.338,150.473 210.505,148.473 211,146.5C 214.333,147.833 217.667,147.833 221,146.5C 221.278,147.416 221.778,148.082 222.5,148.5 Z"/></g>
<g><path style="opacity:1" fill="#87ceeb" d="M 222.5,147.5 C 224.575,151.474 225.575,155.808 225.5,160.5C 224.184,157.592 223.184,154.592 222.5,151.5C 222.5,150.5 222.5,149.5 222.5,148.5C 222.5,148.167 222.5,147.833 222.5,147.5 Z"/></g>
<g><path style="opacity:1" fill="#a1a3a2" d="M 113.5,127.5 C 109.912,132.593 105.745,137.26 101,141.5C 97.7301,145.569 94.7301,149.903 92,154.5C 90.5364,161.151 89.2031,167.818 88,174.5C 86.583,176.398 85.083,178.064 83.5,179.5C 84.7131,175.635 84.3798,171.969 82.5,168.5C 85.3624,161.913 88.0291,155.246 90.5,148.5C 92.5,146.167 94.5,143.833 96.5,141.5C 96.369,142.239 96.5357,142.906 97,143.5C 102.416,137.915 107.916,132.582 113.5,127.5 Z"/></g>
<g><path style="opacity:1" fill="#6a6c6a" d="M 176.5,146.5 C 170.37,151.794 164.37,157.294 158.5,163C 159.448,163.483 160.448,163.649 161.5,163.5C 161.672,164.492 161.338,165.158 160.5,165.5C 160.103,164.475 159.437,164.308 158.5,165C 156.294,167.037 154.294,169.203 152.5,171.5C 150.973,171.427 149.973,172.094 149.5,173.5C 146.5,175.5 143.5,177.5 140.5,179.5C 139.239,177.514 139.572,175.681 141.5,174C 139.311,173.678 137.311,174.178 135.5,175.5C 139.833,172.5 143.5,168.833 146.5,164.5C 157.887,154.108 169.22,143.775 180.5,133.5C 180.833,133.5 181.167,133.5 181.5,133.5C 182.363,132.537 183.03,132.537 183.5,133.5C 181.5,135.833 179.5,138.167 177.5,140.5C 176.534,142.396 176.201,144.396 176.5,146.5 Z"/></g>
<g><path style="opacity:1" fill="#acaead" d="M 233.5,152.5 C 232.581,155.089 230.914,157.089 228.5,158.5C 229.419,155.911 231.086,153.911 233.5,152.5 Z"/></g>
<g><path style="opacity:1" fill="#3c5862" d="M 176.5,146.5 C 176.833,146.5 177.167,146.5 177.5,146.5C 176.167,148.167 174.833,149.833 173.5,151.5C 170.452,153.882 167.785,156.548 165.5,159.5C 163.167,159.833 161.833,161.167 161.5,163.5C 160.448,163.649 159.448,163.483 158.5,163C 164.37,157.294 170.37,151.794 176.5,146.5 Z"/></g>
<g><path style="opacity:1" fill="#747474" d="M 258.5,155.5 C 254.9,157.43 251.9,160.097 249.5,163.5C 247.184,164.806 244.85,166.139 242.5,167.5C 240.958,166.837 239.291,166.17 237.5,165.5C 237.137,164.817 236.804,164.15 236.5,163.5C 239.226,163.736 241.559,162.903 243.5,161C 246.535,157.63 249.868,154.63 253.5,152C 256.926,150.762 258.592,151.929 258.5,155.5 Z"/></g>
<g><path style="opacity:1" fill="#888989" d="M 190.5,121.5 C 188.498,124.334 185.998,126.667 183,128.5C 182.392,130.154 181.892,131.821 181.5,133.5C 181.167,133.5 180.833,133.5 180.5,133.5C 178.002,134.912 175.336,136.079 172.5,137C 164.613,146.044 156.113,154.544 147,162.5C 146.536,163.094 146.369,163.761 146.5,164.5C 143.5,168.833 139.833,172.5 135.5,175.5C 133.847,175.66 132.514,176.326 131.5,177.5C 125.233,180.837 118.899,184.17 112.5,187.5C 107.291,188.689 102.124,190.022 97,191.5C 96.5,191.167 96,190.833 95.5,190.5C 96.666,187.926 98.3326,185.759 100.5,184C 100.272,183.601 99.9382,183.435 99.5,183.5C 99.5,183.167 99.5,182.833 99.5,182.5C 100.496,182.586 101.329,182.252 102,181.5C 102.464,182.094 102.631,182.761 102.5,183.5C 101.427,184.251 101.26,185.251 102,186.5C 104.069,185.736 106.236,185.236 108.5,185C 115.205,181.245 122.205,178.245 129.5,176C 133.527,171.31 138.194,167.31 143.5,164C 149.523,158.086 155.19,151.919 160.5,145.5C 168.331,139.075 175.998,132.408 183.5,125.5C 185.868,124.111 188.201,122.778 190.5,121.5 Z"/></g>
<g><path style="opacity:1" fill="#0f7aa6" d="M 173.5,151.5 C 173.5,151.833 173.5,152.167 173.5,152.5C 176.42,157.427 179.754,162.094 183.5,166.5C 187.246,170.906 190.58,175.573 193.5,180.5C 192.883,180.389 192.383,180.056 192,179.5C 191.256,184.54 190.09,184.707 188.5,180C 186.833,179.167 185.167,178.333 183.5,177.5C 183.167,178.167 182.833,178.833 182.5,179.5C 180.396,176.225 177.563,173.891 174,172.5C 172.803,168.134 169.97,165.8 165.5,165.5C 164.414,165.38 163.747,164.713 163.5,163.5C 163.752,161.927 164.418,160.594 165.5,159.5C 167.785,156.548 170.452,153.882 173.5,151.5 Z"/></g>
<g><path style="opacity:1" fill="#c7c7c7" d="M 258.5,155.5 C 256.1,158.903 253.1,161.57 249.5,163.5C 251.9,160.097 254.9,157.43 258.5,155.5 Z"/></g>
<g><path style="opacity:1" fill="#c0c1c0" d="M 90.5,148.5 C 88.0291,155.246 85.3624,161.913 82.5,168.5C 81.8333,169.167 81.1667,169.833 80.5,170.5C 82.2276,165.486 84.061,160.486 86,155.5C 87.4186,153.007 88.9186,150.674 90.5,148.5 Z"/></g>
<g><path style="opacity:1" fill="#bcdfee" d="M 37.5,166.5 C 33.5191,165.979 29.5191,165.646 25.5,165.5C 22.7212,165.279 20.0545,165.612 17.5,166.5C 19.7432,165.188 22.4098,164.522 25.5,164.5C 29.7773,164.337 33.7773,165.003 37.5,166.5 Z"/></g>
<g><path style="opacity:1" fill="#afb0af" d="M 159.5,140.5 C 158.206,142.907 156.539,145.074 154.5,147C 140.572,158.77 126.239,169.937 111.5,180.5C 108.185,181.553 104.852,181.553 101.5,180.5C 101.5,179.833 101.833,179.5 102.5,179.5C 102.833,179.5 103.167,179.5 103.5,179.5C 107.845,177.993 111.845,175.827 115.5,173C 121.219,168.154 127.219,163.82 133.5,160C 140.936,151.79 149.603,145.29 159.5,140.5 Z"/></g>
<g><path style="opacity:1" fill="#1490c4" d="M 222.5,151.5 C 223.184,154.592 224.184,157.592 225.5,160.5C 225.5,161.833 225.5,163.167 225.5,164.5C 224.539,166.265 224.205,168.265 224.5,170.5C 221.959,169.897 219.626,169.897 217.5,170.5C 215.721,167.085 214.387,163.419 213.5,159.5C 213.5,158.5 213.5,157.5 213.5,156.5C 216.127,157.092 218.794,157.425 221.5,157.5C 221.833,155.5 222.167,153.5 222.5,151.5 Z"/></g>
<g><path style="opacity:1" fill="#a6a9a9" d="M 256.5,149.5 C 259.349,150.92 260.016,152.92 258.5,155.5C 258.592,151.929 256.926,150.762 253.5,152C 249.868,154.63 246.535,157.63 243.5,161C 241.559,162.903 239.226,163.736 236.5,163.5C 233.905,163.04 232.238,164.374 231.5,167.5C 230.5,167.833 229.833,168.5 229.5,169.5C 229.167,169.5 228.833,169.5 228.5,169.5C 227.655,168.329 226.989,166.995 226.5,165.5C 227.434,164.432 227.768,163.099 227.5,161.5C 227.328,160.508 227.662,159.842 228.5,159.5C 228.337,161.857 228.503,164.19 229,166.5C 232.264,163.594 234.764,160.26 236.5,156.5C 236.5,158.167 236.5,159.833 236.5,161.5C 237.5,161.5 238.5,161.5 239.5,161.5C 239.343,160.127 239.51,158.793 240,157.5C 244.257,152.288 249.757,149.622 256.5,149.5 Z"/></g>
<g><path style="opacity:1" fill="#68b7d9" d="M 25.5,165.5 C 29.5191,165.646 33.5191,165.979 37.5,166.5C 37.5,166.833 37.5,167.167 37.5,167.5C 33.2095,167.802 29.2095,167.136 25.5,165.5 Z"/></g>
<g><path style="opacity:1" fill="#606160" d="M 236.5,163.5 C 236.804,164.15 237.137,164.817 237.5,165.5C 239.291,166.17 240.958,166.837 242.5,167.5C 242.5,167.833 242.5,168.167 242.5,168.5C 239.221,169.492 235.888,169.659 232.5,169C 231.944,168.617 231.611,168.117 231.5,167.5C 232.238,164.374 233.905,163.04 236.5,163.5 Z"/></g>
<g><path style="opacity:1" fill="#afdbed" d="M 37.5,167.5 C 37.5,167.167 37.5,166.833 37.5,166.5C 43.4173,166.216 49.084,166.883 54.5,168.5C 53.5,168.5 52.5,168.5 51.5,168.5C 46.8592,167.873 42.1925,167.54 37.5,167.5 Z"/></g>
<g><path style="opacity:1" fill="#bcbcbc" d="M 249.5,163.5 C 248.008,166.323 245.674,167.99 242.5,168.5C 242.5,168.167 242.5,167.833 242.5,167.5C 244.85,166.139 247.184,164.806 249.5,163.5 Z"/></g>
<g><path style="opacity:1" fill="#89c5e0" d="M 51.5,168.5 C 52.5,168.5 53.5,168.5 54.5,168.5C 56.8333,168.5 59.1667,168.5 61.5,168.5C 63.8333,169.167 66.1667,169.833 68.5,170.5C 62.6105,170.55 56.9438,169.884 51.5,168.5 Z"/></g>
<g><path style="opacity:1" fill="#c5e1ec" d="M 61.5,168.5 C 67.5593,168.699 73.5593,169.366 79.5,170.5C 79.5,170.833 79.5,171.167 79.5,171.5C 79.1667,171.5 78.8333,171.5 78.5,171.5C 75.2139,170.793 71.8806,170.46 68.5,170.5C 66.1667,169.833 63.8333,169.167 61.5,168.5 Z"/></g>
<g><path style="opacity:1" fill="#d2d5d6" d="M 160.5,165.5 C 160.557,166.609 160.89,167.609 161.5,168.5C 160.25,168.423 159.417,167.756 159,166.5C 157.223,168.79 155.056,170.457 152.5,171.5C 154.294,169.203 156.294,167.037 158.5,165C 159.437,164.308 160.103,164.475 160.5,165.5 Z"/></g>
<g><path style="opacity:1" fill="#808584" d="M 231.5,167.5 C 231.611,168.117 231.944,168.617 232.5,169C 235.888,169.659 239.221,169.492 242.5,168.5C 242.389,169.117 242.056,169.617 241.5,170C 238.518,170.498 235.518,170.665 232.5,170.5C 231.609,169.89 230.609,169.557 229.5,169.5C 229.833,168.5 230.5,167.833 231.5,167.5 Z"/></g>
<g><path style="opacity:1" fill="#86c1da" d="M 17.5,166.5 C 17.5,167.167 17.5,167.833 17.5,168.5C 15.5212,169.812 13.8545,171.479 12.5,173.5C 14.1836,174.15 15.5169,175.15 16.5,176.5C 14.8828,175.962 13.2161,175.629 11.5,175.5C 11.8493,171.47 13.8493,168.47 17.5,166.5 Z"/></g>
<g><path style="opacity:1" fill="#2d9ed1" d="M 25.5,165.5 C 29.2095,167.136 33.2095,167.802 37.5,167.5C 42.1925,167.54 46.8592,167.873 51.5,168.5C 56.9438,169.884 62.6105,170.55 68.5,170.5C 71.8806,170.46 75.2139,170.793 78.5,171.5C 78.7678,173.099 78.4345,174.432 77.5,175.5C 59.1578,173.104 40.8244,170.437 22.5,167.5C 20.7348,168.026 19.0681,168.359 17.5,168.5C 17.5,167.833 17.5,167.167 17.5,166.5C 20.0545,165.612 22.7212,165.279 25.5,165.5 Z"/></g>
<g><path style="opacity:1" fill="#1f4d60" d="M 165.5,159.5 C 164.418,160.594 163.752,161.927 163.5,163.5C 163.747,164.713 164.414,165.38 165.5,165.5C 172.662,173.495 180.329,180.995 188.5,188C 187.944,188.383 187.611,188.883 187.5,189.5C 186.833,189.5 186.5,189.833 186.5,190.5C 186.103,191.525 185.437,191.692 184.5,191C 176.965,183.298 169.298,175.798 161.5,168.5C 160.89,167.609 160.557,166.609 160.5,165.5C 161.338,165.158 161.672,164.492 161.5,163.5C 161.833,161.167 163.167,159.833 165.5,159.5 Z"/></g>
<g><path style="opacity:1" fill="#8e9190" d="M 82.5,168.5 C 84.3798,171.969 84.7131,175.635 83.5,179.5C 83.5,182.167 83.5,184.833 83.5,187.5C 84.791,187.263 85.791,187.596 86.5,188.5C 83.8333,191.5 81.1667,194.5 78.5,197.5C 75.4992,200.332 72.3325,202.998 69,205.5C 68.5831,204.244 67.7498,203.577 66.5,203.5C 66.1667,202.833 65.8333,202.167 65.5,201.5C 69.2848,203.066 71.2848,201.733 71.5,197.5C 73.3803,195.245 74.3803,192.578 74.5,189.5C 79.4614,184.299 81.1281,178.299 79.5,171.5C 79.5,171.167 79.5,170.833 79.5,170.5C 79.8333,170.5 80.1667,170.5 80.5,170.5C 81.1667,169.833 81.8333,169.167 82.5,168.5 Z"/></g>
<g><path style="opacity:1" fill="#1383b3" d="M 225.5,164.5 C 225.5,165.167 225.833,165.5 226.5,165.5C 226.989,166.995 227.655,168.329 228.5,169.5C 228.963,172.482 229.296,175.482 229.5,178.5C 230.341,182.163 230.841,185.83 231,189.5C 229.17,184.821 226.17,181.154 222,178.5C 221.517,179.448 221.351,180.448 221.5,181.5C 219.399,178.203 218.065,174.537 217.5,170.5C 219.626,169.897 221.959,169.897 224.5,170.5C 224.205,168.265 224.539,166.265 225.5,164.5 Z"/></g>
<g><path style="opacity:1" fill="#969797" d="M 160.5,145.5 C 155.19,151.919 149.523,158.086 143.5,164C 138.194,167.31 133.527,171.31 129.5,176C 122.205,178.245 115.205,181.245 108.5,185C 106.236,185.236 104.069,185.736 102,186.5C 101.26,185.251 101.427,184.251 102.5,183.5C 102.56,184.043 102.893,184.376 103.5,184.5C 105.776,183.787 108.109,183.287 110.5,183C 118.181,178.829 125.515,174.162 132.5,169C 135.501,163.332 140.168,159.999 146.5,159C 150.396,153.602 155.063,149.102 160.5,145.5 Z"/></g>
<g><path style="opacity:1" fill="#646564" d="M 140.5,179.5 C 138.64,180.939 136.973,182.605 135.5,184.5C 131.131,186.346 127.131,188.679 123.5,191.5C 123.167,191.5 122.833,191.5 122.5,191.5C 118.407,192.382 114.74,194.049 111.5,196.5C 109.938,196.733 108.605,197.4 107.5,198.5C 105.611,197.258 103.611,197.258 101.5,198.5C 98.9621,198.507 96.4621,198.841 94,199.5C 88.1642,202.007 82.3309,204.341 76.5,206.5C 79.5,202.833 82.8333,199.5 86.5,196.5C 92.879,196.834 99.2124,196.001 105.5,194C 111.716,191.455 117.716,188.455 123.5,185C 126.713,182.95 129.379,180.45 131.5,177.5C 132.514,176.326 133.847,175.66 135.5,175.5C 137.311,174.178 139.311,173.678 141.5,174C 139.572,175.681 139.239,177.514 140.5,179.5 Z"/></g>
<g><path style="opacity:1" fill="#8dc3db" d="M 16.5,176.5 C 18.0269,176.427 19.0269,177.094 19.5,178.5C 17.9731,178.573 16.9731,177.906 16.5,176.5 Z"/></g>
<g><path style="opacity:1" fill="#babbbb" d="M 149.5,173.5 C 145.931,178.612 141.264,182.278 135.5,184.5C 136.973,182.605 138.64,180.939 140.5,179.5C 143.5,177.5 146.5,175.5 149.5,173.5 Z"/></g>
<g><path style="opacity:1" fill="#1491c6" d="M 77.5,175.5 C 76.6295,178.112 75.9628,180.779 75.5,183.5C 75.5,184.167 75.5,184.833 75.5,185.5C 73.7261,188.186 72.3928,191.186 71.5,194.5C 70.0527,195.622 69.0527,197.122 68.5,199C 66.8659,199.494 65.1992,199.66 63.5,199.5C 62.5,199.5 61.5,199.5 60.5,199.5C 57.5399,197.353 54.2066,195.686 50.5,194.5C 49.5144,192.592 47.8477,191.592 45.5,191.5C 43.1632,189.604 40.4965,188.27 37.5,187.5C 36.5084,187.672 35.8417,187.338 35.5,186.5C 31.2859,183.418 26.6193,181.085 21.5,179.5C 21.1583,178.662 20.4916,178.328 19.5,178.5C 19.0269,177.094 18.0269,176.427 16.5,176.5C 15.5169,175.15 14.1836,174.15 12.5,173.5C 13.8545,171.479 15.5212,169.812 17.5,168.5C 19.0681,168.359 20.7348,168.026 22.5,167.5C 40.8244,170.437 59.1578,173.104 77.5,175.5 Z"/></g>
<g><path style="opacity:1" fill="#4e889e" d="M 78.5,171.5 C 78.8333,171.5 79.1667,171.5 79.5,171.5C 79.8192,176.164 78.4858,180.164 75.5,183.5C 75.9628,180.779 76.6295,178.112 77.5,175.5C 78.4345,174.432 78.7678,173.099 78.5,171.5 Z"/></g>
<g><path style="opacity:1" fill="#6a7b7f" d="M 79.5,171.5 C 81.1281,178.299 79.4614,184.299 74.5,189.5C 74.8333,188.167 75.1667,186.833 75.5,185.5C 75.5,184.833 75.5,184.167 75.5,183.5C 78.4858,180.164 79.8192,176.164 79.5,171.5 Z"/></g>
<g><path style="opacity:1" fill="#226583" d="M 228.5,169.5 C 228.833,169.5 229.167,169.5 229.5,169.5C 230.609,169.557 231.609,169.89 232.5,170.5C 233.509,175.178 234.509,179.844 235.5,184.5C 235.759,187.272 236.759,189.605 238.5,191.5C 238.328,192.492 238.662,193.158 239.5,193.5C 239.263,194.791 239.596,195.791 240.5,196.5C 241.417,199.417 242.084,202.417 242.5,205.5C 241.833,206.833 240.833,207.833 239.5,208.5C 239.11,204.419 237.776,200.752 235.5,197.5C 234.272,190.822 232.272,184.488 229.5,178.5C 229.296,175.482 228.963,172.482 228.5,169.5 Z"/></g>
<g><path style="opacity:1" fill="#91c3d9" d="M 21.5,179.5 C 26.6193,181.085 31.2859,183.418 35.5,186.5C 30.4037,184.919 25.737,182.586 21.5,179.5 Z"/></g>
<g><path style="opacity:1" fill="#7d7f7e" d="M 253.5,182.5 C 255.346,182.222 256.68,182.889 257.5,184.5C 253.81,189.185 250.143,193.852 246.5,198.5C 245.698,199.952 245.198,201.618 245,203.5C 244.292,204.381 243.458,205.047 242.5,205.5C 242.084,202.417 241.417,199.417 240.5,196.5C 242.371,196.141 243.871,195.141 245,193.5C 247.08,190.935 248.913,188.268 250.5,185.5C 250.856,183.81 251.856,182.81 253.5,182.5 Z"/></g>
<g><path style="opacity:1" fill="#0c6f98" d="M 165.5,165.5 C 169.97,165.8 172.803,168.134 174,172.5C 177.563,173.891 180.396,176.225 182.5,179.5C 182.833,178.833 183.167,178.167 183.5,177.5C 185.167,178.333 186.833,179.167 188.5,180C 190.09,184.707 191.256,184.54 192,179.5C 192.383,180.056 192.883,180.389 193.5,180.5C 195.167,182.5 196.833,184.5 198.5,186.5C 207.096,200.028 215.429,213.694 223.5,227.5C 222.25,227.577 221.417,228.244 221,229.5C 220.506,227.866 220.34,226.199 220.5,224.5C 219.178,224.67 218.011,224.337 217,223.5C 216.184,224.823 215.017,225.489 213.5,225.5C 207.967,217.1 203.467,208.1 200,198.5C 197.414,195.609 194.914,192.609 192.5,189.5C 191.313,188.347 190.313,188.347 189.5,189.5C 188.833,189.5 188.167,189.5 187.5,189.5C 187.611,188.883 187.944,188.383 188.5,188C 180.329,180.995 172.662,173.495 165.5,165.5 Z"/></g>
<g><path style="opacity:1" fill="#b6b6b6" d="M 253.5,182.5 C 254.601,181.402 255.934,181.235 257.5,182C 260.939,184.139 264.106,186.639 267,189.5C 267.483,190.448 267.649,191.448 267.5,192.5C 266.209,192.263 265.209,192.596 264.5,193.5C 260.866,194.981 257.199,196.481 253.5,198C 251.52,200.503 249.187,202.336 246.5,203.5C 246.5,201.833 246.5,200.167 246.5,198.5C 250.143,193.852 253.81,189.185 257.5,184.5C 256.68,182.889 255.346,182.222 253.5,182.5 Z"/></g>
<g><path style="opacity:1" fill="#16a3de" d="M 198.5,186.5 C 201.016,186.755 203.35,187.589 205.5,189C 212.395,197.438 219.061,206.104 225.5,215C 225.167,215.333 224.833,215.667 224.5,216C 225.552,217.119 226.719,217.619 228,217.5C 228.617,218.449 228.451,219.282 227.5,220C 230.677,223.01 233.677,226.176 236.5,229.5C 239.198,232.485 241.365,235.818 243,239.5C 243.511,241.878 244.178,244.212 245,246.5C 245.671,247.252 246.504,247.586 247.5,247.5C 247.5,247.833 247.5,248.167 247.5,248.5C 247.433,250.401 247.767,252.234 248.5,254C 247.66,255.171 246.827,256.338 246,257.5C 242.354,254.849 239.854,251.349 238.5,247C 238.645,246.228 238.978,245.561 239.5,245C 238.584,244.626 237.75,244.126 237,243.5C 236.707,241.075 235.541,239.242 233.5,238C 233.833,237.667 234.167,237.333 234.5,237C 231.894,236.55 230.561,235.05 230.5,232.5C 229.5,232.5 228.5,232.5 227.5,232.5C 226.396,230.611 225.063,228.945 223.5,227.5C 215.429,213.694 207.096,200.028 198.5,186.5 Z"/></g>
<g><path style="opacity:1" fill="#a8abac" d="M 250.5,185.5 C 248.913,188.268 247.08,190.935 245,193.5C 243.871,195.141 242.371,196.141 240.5,196.5C 239.596,195.791 239.263,194.791 239.5,193.5C 240.222,193.918 240.722,194.584 241,195.5C 243.668,191.666 246.835,188.333 250.5,185.5 Z"/></g>
<g><path style="opacity:1" fill="#c3c3c3" d="M 135.5,184.5 C 134.972,185.721 134.305,186.887 133.5,188C 130.267,189.386 126.934,190.553 123.5,191.5C 127.131,188.679 131.131,186.346 135.5,184.5 Z"/></g>
<g><path style="opacity:1" fill="#80b8d1" d="M 37.5,187.5 C 40.4965,188.27 43.1632,189.604 45.5,191.5C 42.279,191.104 39.6123,189.771 37.5,187.5 Z"/></g>
<g><path style="opacity:1" fill="#73aac1" d="M 186.5,190.5 C 186.5,189.833 186.833,189.5 187.5,189.5C 188.167,189.5 188.833,189.5 189.5,189.5C 190.674,190.514 191.34,191.847 191.5,193.5C 190.33,191.721 188.664,190.721 186.5,190.5 Z"/></g>
<g><path style="opacity:1" fill="#73a3b6" d="M 235.5,184.5 C 237.241,186.395 238.241,188.728 238.5,191.5C 236.759,189.605 235.759,187.272 235.5,184.5 Z"/></g>
<g><path style="opacity:1" fill="#92c2d8" d="M 45.5,191.5 C 47.8477,191.592 49.5144,192.592 50.5,194.5C 48.326,194.25 46.6594,193.25 45.5,191.5 Z"/></g>
<g><path style="opacity:1" fill="#507a8b" d="M 75.5,185.5 C 75.1667,186.833 74.8333,188.167 74.5,189.5C 74.3803,192.578 73.3803,195.245 71.5,197.5C 71.5,196.5 71.5,195.5 71.5,194.5C 72.3928,191.186 73.7261,188.186 75.5,185.5 Z"/></g>
<g><path style="opacity:1" fill="#757574" d="M 131.5,177.5 C 129.379,180.45 126.713,182.95 123.5,185C 117.716,188.455 111.716,191.455 105.5,194C 99.2124,196.001 92.879,196.834 86.5,196.5C 90.5,191.833 94.8333,187.5 99.5,183.5C 99.9382,183.435 100.272,183.601 100.5,184C 98.3326,185.759 96.666,187.926 95.5,190.5C 96,190.833 96.5,191.167 97,191.5C 102.124,190.022 107.291,188.689 112.5,187.5C 118.899,184.17 125.233,180.837 131.5,177.5 Z"/></g>
<g><path style="opacity:1" fill="#0f79a6" d="M 229.5,178.5 C 232.272,184.488 234.272,190.822 235.5,197.5C 237.365,209.024 236.198,209.358 232,198.5C 230.648,200.594 230.148,202.927 230.5,205.5C 228.36,200.415 226.027,195.415 223.5,190.5C 222.833,187.5 222.167,184.5 221.5,181.5C 221.351,180.448 221.517,179.448 222,178.5C 226.17,181.154 229.17,184.821 231,189.5C 230.841,185.83 230.341,182.163 229.5,178.5 Z"/></g>
<g><path style="opacity:1" fill="#b3b8b9" d="M 122.5,191.5 C 119.503,194.496 115.836,196.163 111.5,196.5C 114.74,194.049 118.407,192.382 122.5,191.5 Z"/></g>
<g><path style="opacity:1" fill="#b5d4e2" d="M 50.5,194.5 C 54.2066,195.686 57.5399,197.353 60.5,199.5C 56.3294,199.242 52.9961,197.575 50.5,194.5 Z"/></g>
<g><path style="opacity:1" fill="#355764" d="M 107.5,198.5 C 106.833,198.5 106.5,198.833 106.5,199.5C 103.673,199.584 101.006,200.25 98.5,201.5C 99.3065,200.272 100.306,199.272 101.5,198.5C 103.611,197.258 105.611,197.258 107.5,198.5 Z"/></g>
<g><path style="opacity:1" fill="#6da9c2" d="M 191.5,193.5 C 193.95,195.629 195.617,198.296 196.5,201.5C 194.05,199.371 192.383,196.704 191.5,193.5 Z"/></g>
<g><path style="opacity:1" fill="#2e7999" d="M 71.5,194.5 C 71.5,195.5 71.5,196.5 71.5,197.5C 71.2848,201.733 69.2848,203.066 65.5,201.5C 64.5,201.167 63.8333,200.5 63.5,199.5C 65.1992,199.66 66.8659,199.494 68.5,199C 69.0527,197.122 70.0527,195.622 71.5,194.5 Z"/></g>
<g><path style="opacity:1" fill="#0e7099" d="M 235.5,197.5 C 237.776,200.752 239.11,204.419 239.5,208.5C 239.263,209.791 239.596,210.791 240.5,211.5C 243.211,217.495 244.377,223.828 244,230.5C 240.732,223.687 239.898,224.02 241.5,231.5C 237.321,223.132 233.655,214.466 230.5,205.5C 230.148,202.927 230.648,200.594 232,198.5C 236.198,209.358 237.365,209.024 235.5,197.5 Z"/></g>
<g><path style="opacity:1" fill="#717171" d="M 267.5,197.5 C 267.5,197.833 267.5,198.167 267.5,198.5C 264.553,199.781 262.219,201.781 260.5,204.5C 256.949,206.111 253.949,208.444 251.5,211.5C 251.167,211.5 250.833,211.5 250.5,211.5C 248.5,211.5 246.5,211.5 244.5,211.5C 244.5,211.167 244.5,210.833 244.5,210.5C 246.527,210.662 248.527,210.495 250.5,210C 248.559,208.097 246.226,207.264 243.5,207.5C 243.833,206.5 244.5,205.833 245.5,205.5C 248.113,206.435 250.779,206.602 253.5,206C 256.876,202.658 260.209,199.325 263.5,196C 265.463,195.156 266.796,195.656 267.5,197.5 Z"/></g>
<g><path style="opacity:1" fill="#22769a" d="M 106.5,199.5 C 106.5,199.833 106.5,200.167 106.5,200.5C 105.209,200.263 104.209,200.596 103.5,201.5C 98.8416,204.052 93.8416,205.385 88.5,205.5C 91.335,203.215 94.6684,201.882 98.5,201.5C 101.006,200.25 103.673,199.584 106.5,199.5 Z"/></g>
<g><path style="opacity:1" fill="#20a9e3" d="M 236.5,229.5 C 233.677,226.176 230.677,223.01 227.5,220C 228.451,219.282 228.617,218.449 228,217.5C 226.719,217.619 225.552,217.119 224.5,216C 224.833,215.667 225.167,215.333 225.5,215C 219.061,206.104 212.395,197.438 205.5,189C 203.35,187.589 201.016,186.755 198.5,186.5C 196.833,184.5 195.167,182.5 193.5,180.5C 190.58,175.573 187.246,170.906 183.5,166.5C 184.92,165.721 185.754,164.721 186,163.5C 187.371,164.581 188.871,165.415 190.5,166C 193.875,169.009 197.375,171.842 201,174.5C 201.333,174.167 201.667,173.833 202,173.5C 209.261,181.781 216.261,190.448 223,199.5C 223.617,200.449 223.451,201.282 222.5,202C 223.552,203.119 224.719,203.619 226,203.5C 230.384,211.82 233.884,220.487 236.5,229.5 Z"/></g>
<g><path style="opacity:1" fill="#c9c9c9" d="M 267.5,198.5 C 265.807,201.19 263.473,203.19 260.5,204.5C 262.219,201.781 264.553,199.781 267.5,198.5 Z"/></g>
<g><path style="opacity:1" fill="#a2a5a5" d="M 264.5,193.5 C 258.559,198.294 252.226,202.294 245.5,205.5C 244.5,205.833 243.833,206.5 243.5,207.5C 243.167,208.167 242.833,208.833 242.5,209.5C 241.5,209.833 240.833,210.5 240.5,211.5C 239.596,210.791 239.263,209.791 239.5,208.5C 240.833,207.833 241.833,206.833 242.5,205.5C 243.458,205.047 244.292,204.381 245,203.5C 245.198,201.618 245.698,199.952 246.5,198.5C 246.5,200.167 246.5,201.833 246.5,203.5C 249.187,202.336 251.52,200.503 253.5,198C 257.199,196.481 260.866,194.981 264.5,193.5 Z"/></g>
<g><path style="opacity:1" fill="#838383" d="M 267.5,192.5 C 268.649,192.791 269.316,193.624 269.5,195C 269.316,196.376 268.649,197.209 267.5,197.5C 266.796,195.656 265.463,195.156 263.5,196C 260.209,199.325 256.876,202.658 253.5,206C 250.779,206.602 248.113,206.435 245.5,205.5C 252.226,202.294 258.559,198.294 264.5,193.5C 265.209,192.596 266.209,192.263 267.5,192.5 Z"/></g>
<g><path style="opacity:1" fill="#515859" d="M 101.5,198.5 C 100.306,199.272 99.3065,200.272 98.5,201.5C 94.6684,201.882 91.335,203.215 88.5,205.5C 84.164,205.837 80.4974,207.504 77.5,210.5C 76.8333,210.5 76.1667,210.5 75.5,210.5C 74.5084,210.672 73.8417,210.338 73.5,209.5C 74.1667,208.167 75.1667,207.167 76.5,206.5C 82.3309,204.341 88.1642,202.007 94,199.5C 96.4621,198.841 98.9621,198.507 101.5,198.5 Z"/></g>
<g><path style="opacity:1" fill="#1089bc" d="M 103.5,201.5 C 104.539,207.797 104.706,214.13 104,220.5C 100.638,222.537 97.9717,224.537 96,226.5C 95.3828,225.551 95.5494,224.718 96.5,224C 90.31,219.463 84.31,215.63 78.5,212.5C 78.8627,211.817 79.1961,211.15 79.5,210.5C 82.7598,209.226 85.7598,207.56 88.5,205.5C 93.8416,205.385 98.8416,204.052 103.5,201.5 Z"/></g>
<g><path style="opacity:1" fill="#505757" d="M 243.5,207.5 C 246.226,207.264 248.559,208.097 250.5,210C 248.527,210.495 246.527,210.662 244.5,210.5C 243.508,210.672 242.842,210.338 242.5,209.5C 242.833,208.833 243.167,208.167 243.5,207.5 Z"/></g>
<g><path style="opacity:1" fill="#236e8e" d="M 88.5,205.5 C 85.7598,207.56 82.7598,209.226 79.5,210.5C 78.8333,210.5 78.1667,210.5 77.5,210.5C 80.4974,207.504 84.164,205.837 88.5,205.5 Z"/></g>
<g><path style="opacity:1" fill="#b9b9b9" d="M 260.5,204.5 C 258.051,207.556 255.051,209.889 251.5,211.5C 253.949,208.444 256.949,206.111 260.5,204.5 Z"/></g>
<g><path style="opacity:1" fill="#98a5a9" d="M 244.5,211.5 C 246.5,211.5 248.5,211.5 250.5,211.5C 248.156,211.94 246.156,212.94 244.5,214.5C 243.167,213.5 243.167,212.5 244.5,211.5 Z"/></g>
<g><path style="opacity:1" fill="#177da8" d="M 189.5,189.5 C 190.313,188.347 191.313,188.347 192.5,189.5C 194.914,192.609 197.414,195.609 200,198.5C 203.467,208.1 207.967,217.1 213.5,225.5C 213.5,225.833 213.5,226.167 213.5,226.5C 208.119,218.103 202.452,209.769 196.5,201.5C 195.617,198.296 193.95,195.629 191.5,193.5C 191.34,191.847 190.674,190.514 189.5,189.5 Z"/></g>
<g><path style="opacity:1" fill="#b7b9b8" d="M 78.5,197.5 C 71.557,203.785 65.2237,210.785 59.5,218.5C 60.0016,219.521 60.6683,219.688 61.5,219C 64.8498,214.795 68.8498,211.629 73.5,209.5C 73.8417,210.338 74.5084,210.672 75.5,210.5C 75.5,210.833 75.5,211.167 75.5,211.5C 74.448,211.351 73.448,211.517 72.5,212C 68.2978,216.37 63.9645,220.537 59.5,224.5C 59.2785,222.336 58.2785,220.67 56.5,219.5C 58.385,217.947 59.385,215.947 59.5,213.5C 63.3104,211.216 65.6438,207.883 66.5,203.5C 67.7498,203.577 68.5831,204.244 69,205.5C 72.3325,202.998 75.4992,200.332 78.5,197.5 Z"/></g>
<g><path style="opacity:1" fill="#c9e1eb" d="M 75.5,211.5 C 77.3264,213.147 78.6597,215.147 79.5,217.5C 79.5,218.167 79.5,218.833 79.5,219.5C 76.8707,217.619 75.5374,214.953 75.5,211.5 Z"/></g>
<g><path style="opacity:1" fill="#cdcdcd" d="M 59.5,213.5 C 59.385,215.947 58.385,217.947 56.5,219.5C 50.1829,225.413 43.8496,231.413 37.5,237.5C 43.7881,228.656 51.1214,220.656 59.5,213.5 Z"/></g>
<g><path style="opacity:1" fill="#a8ccdb" d="M 108.5,210.5 C 110.211,214.881 110.877,219.547 110.5,224.5C 110.167,224.5 109.833,224.5 109.5,224.5C 109.5,223.833 109.5,223.167 109.5,222.5C 108.979,218.519 108.646,214.519 108.5,210.5 Z"/></g>
<g><path style="opacity:1" fill="#4ba0c6" d="M 107.5,198.5 C 108.162,202.466 108.495,206.466 108.5,210.5C 108.646,214.519 108.979,218.519 109.5,222.5C 108.883,222.611 108.383,222.944 108,223.5C 107.405,215.835 106.905,208.168 106.5,200.5C 106.5,200.167 106.5,199.833 106.5,199.5C 106.5,198.833 106.833,198.5 107.5,198.5 Z"/></g>
<g><path style="opacity:1" fill="#76abc3" d="M 196.5,201.5 C 202.452,209.769 208.119,218.103 213.5,226.5C 215.483,226.157 216.817,226.824 217.5,228.5C 215.359,228.251 213.193,227.917 211,227.5C 206.355,218.698 201.521,210.032 196.5,201.5 Z"/></g>
<g><path style="opacity:1" fill="#105774" d="M 245.5,218.5 C 246.345,219.671 247.011,221.005 247.5,222.5C 247.752,226.327 249.085,229.66 251.5,232.5C 251.833,232.5 252.167,232.5 252.5,232.5C 252.5,233.833 252.5,235.167 252.5,236.5C 250.821,236.285 249.821,236.952 249.5,238.5C 245.843,232.204 244.51,225.537 245.5,218.5 Z"/></g>
<g><path style="opacity:1" fill="#98bbcb" d="M 245.5,216.5 C 247.245,218.033 248.245,220.033 248.5,222.5C 248.167,222.5 247.833,222.5 247.5,222.5C 247.011,221.005 246.345,219.671 245.5,218.5C 245.5,217.833 245.5,217.167 245.5,216.5 Z"/></g>
<g><path style="opacity:1" fill="#86bdd5" d="M 79.5,217.5 C 82.5285,222.204 85.1951,227.204 87.5,232.5C 86.2058,231.71 85.0391,230.71 84,229.5C 83.1477,225.736 81.6477,222.403 79.5,219.5C 79.5,218.833 79.5,218.167 79.5,217.5 Z"/></g>
<g><path style="opacity:1" fill="#868686" d="M 56.5,219.5 C 58.2785,220.67 59.2785,222.336 59.5,224.5C 51.8875,230.775 44.5542,237.442 37.5,244.5C 35.8564,244.19 34.8564,243.19 34.5,241.5C 35.5,240.167 36.5,238.833 37.5,237.5C 43.8496,231.413 50.1829,225.413 56.5,219.5 Z"/></g>
<g><path style="opacity:1" fill="#1793c8" d="M 106.5,200.5 C 106.905,208.168 107.405,215.835 108,223.5C 108.383,222.944 108.883,222.611 109.5,222.5C 109.5,223.167 109.5,223.833 109.5,224.5C 109.229,229.434 109.896,234.1 111.5,238.5C 111.5,240.5 111.5,242.5 111.5,244.5C 112.194,249.805 112.528,255.138 112.5,260.5C 110.045,261.786 108.045,263.62 106.5,266C 105.423,266.47 104.423,266.303 103.5,265.5C 103.204,263.597 102.537,261.93 101.5,260.5C 100.532,257.9 99.1991,255.566 97.5,253.5C 96.0687,252.22 95.4021,250.553 95.5,248.5C 94.3411,244.849 92.6744,241.515 90.5,238.5C 90.0075,236.181 89.0075,234.181 87.5,232.5C 85.1951,227.204 82.5285,222.204 79.5,217.5C 78.6597,215.147 77.3264,213.147 75.5,211.5C 75.5,211.167 75.5,210.833 75.5,210.5C 76.1667,210.5 76.8333,210.5 77.5,210.5C 78.1667,210.5 78.8333,210.5 79.5,210.5C 79.1961,211.15 78.8627,211.817 78.5,212.5C 84.31,215.63 90.31,219.463 96.5,224C 95.5494,224.718 95.3828,225.551 96,226.5C 97.9717,224.537 100.638,222.537 104,220.5C 104.706,214.13 104.539,207.797 103.5,201.5C 104.209,200.596 105.209,200.263 106.5,200.5 Z"/></g>
<g><path style="opacity:1" fill="#11668b" d="M 242.5,209.5 C 242.842,210.338 243.508,210.672 244.5,210.5C 244.5,210.833 244.5,211.167 244.5,211.5C 243.167,212.5 243.167,213.5 244.5,214.5C 245.338,214.842 245.672,215.508 245.5,216.5C 245.5,217.167 245.5,217.833 245.5,218.5C 244.51,225.537 245.843,232.204 249.5,238.5C 249.963,241.221 250.629,243.888 251.5,246.5C 250.549,247.919 250.216,249.585 250.5,251.5C 249.272,250.694 248.272,249.694 247.5,248.5C 247.5,248.167 247.5,247.833 247.5,247.5C 245.29,242.199 243.29,236.866 241.5,231.5C 239.898,224.02 240.732,223.687 244,230.5C 244.377,223.828 243.211,217.495 240.5,211.5C 240.833,210.5 241.5,209.833 242.5,209.5 Z"/></g>
<g><path style="opacity:1" fill="#5489a0" d="M 247.5,222.5 C 247.833,222.5 248.167,222.5 248.5,222.5C 250.08,225.659 251.08,228.993 251.5,232.5C 249.085,229.66 247.752,226.327 247.5,222.5 Z"/></g>
<g><path style="opacity:1" fill="#74b3d0" d="M 87.5,232.5 C 89.0075,234.181 90.0075,236.181 90.5,238.5C 88.3862,237.216 87.3862,235.216 87.5,232.5 Z"/></g>
<g><path style="opacity:1" fill="#9cbcca" d="M 218.5,230.5 C 220.587,231.585 221.92,233.251 222.5,235.5C 220.413,234.415 219.08,232.749 218.5,230.5 Z"/></g>
<g><path style="opacity:1" fill="#1797cc" d="M 227.5,232.5 C 228.5,232.5 229.5,232.5 230.5,232.5C 230.561,235.05 231.894,236.55 234.5,237C 234.167,237.333 233.833,237.667 233.5,238C 235.541,239.242 236.707,241.075 237,243.5C 237.75,244.126 238.584,244.626 239.5,245C 238.978,245.561 238.645,246.228 238.5,247C 239.854,251.349 242.354,254.849 246,257.5C 246.827,256.338 247.66,255.171 248.5,254C 247.767,252.234 247.433,250.401 247.5,248.5C 248.272,249.694 249.272,250.694 250.5,251.5C 250.139,255.222 248.472,258.222 245.5,260.5C 239.043,251.617 233.043,242.284 227.5,232.5 Z"/></g>
<g><path style="opacity:1" fill="#6cb2d0" d="M 109.5,224.5 C 109.833,224.5 110.167,224.5 110.5,224.5C 110.5,224.833 110.5,225.167 110.5,225.5C 111.2,229.798 111.533,234.131 111.5,238.5C 109.896,234.1 109.229,229.434 109.5,224.5 Z"/></g>
<g><path style="opacity:1" fill="#99bbc9" d="M 222.5,235.5 C 223.906,235.973 224.573,236.973 224.5,238.5C 223.094,238.027 222.427,237.027 222.5,235.5 Z"/></g>
<g><path style="opacity:1" fill="#9cbfcc" d="M 252.5,232.5 C 254.38,234.755 255.38,237.422 255.5,240.5C 254.857,238.924 253.857,237.59 252.5,236.5C 252.5,235.167 252.5,233.833 252.5,232.5 Z"/></g>
<g><path style="opacity:1" fill="#74b2cd" d="M 90.5,238.5 C 92.6744,241.515 94.3411,244.849 95.5,248.5C 92.7933,245.753 91.1266,242.42 90.5,238.5 Z"/></g>
<g><path style="opacity:1" fill="#98b9c7" d="M 224.5,238.5 C 226.262,239.262 227.262,240.596 227.5,242.5C 225.738,241.738 224.738,240.404 224.5,238.5 Z"/></g>
<g><path style="opacity:1" fill="#a9a9a9" d="M 34.5,241.5 C 34.8564,243.19 35.8564,244.19 37.5,244.5C 36.2112,245.637 35.2112,246.97 34.5,248.5C 32.2356,251.302 30.5689,250.969 29.5,247.5C 29.7781,244.246 31.4448,242.246 34.5,241.5 Z"/></g>
<g><path style="opacity:1" fill="#9bbbc8" d="M 227.5,242.5 C 228.906,242.973 229.573,243.973 229.5,245.5C 228.094,245.027 227.427,244.027 227.5,242.5 Z"/></g>
<g><path style="opacity:1" fill="#033e54" d="M 252.5,236.5 C 252.867,241.003 253.867,245.336 255.5,249.5C 254.5,249.5 253.5,249.5 252.5,249.5C 252.737,248.209 252.404,247.209 251.5,246.5C 250.629,243.888 249.963,241.221 249.5,238.5C 249.821,236.952 250.821,236.285 252.5,236.5 Z"/></g>
<g><path style="opacity:1" fill="#1e5e79" d="M 252.5,236.5 C 253.857,237.59 254.857,238.924 255.5,240.5C 256.167,243.5 256.833,246.5 257.5,249.5C 256.833,249.5 256.167,249.5 255.5,249.5C 253.867,245.336 252.867,241.003 252.5,236.5 Z"/></g>
<g><path style="opacity:1" fill="#87acbc" d="M 255.5,240.5 C 256.492,242.456 257.492,244.456 258.5,246.5C 258.737,247.791 258.404,248.791 257.5,249.5C 256.833,246.5 256.167,243.5 255.5,240.5 Z"/></g>
<g><path style="opacity:1" fill="#cecece" d="M 59.5,224.5 C 51.7999,233.201 43.4665,241.201 34.5,248.5C 35.2112,246.97 36.2112,245.637 37.5,244.5C 44.5542,237.442 51.8875,230.775 59.5,224.5 Z"/></g>
<g><path style="opacity:1" fill="#9ebecc" d="M 229.5,245.5 C 231.262,246.262 232.262,247.596 232.5,249.5C 230.738,248.738 229.738,247.404 229.5,245.5 Z"/></g>
<g><path style="opacity:1" fill="#c4dee9" d="M 110.5,225.5 C 111.268,226.263 111.768,227.263 112,228.5C 112.361,238.272 113.527,247.938 115.5,257.5C 115.253,258.713 114.586,259.38 113.5,259.5C 113.666,255.486 113.499,251.486 113,247.5C 112.768,246.263 112.268,245.263 111.5,244.5C 111.5,242.5 111.5,240.5 111.5,238.5C 111.533,234.131 111.2,229.798 110.5,225.5 Z"/></g>
<g><path style="opacity:1" fill="#1a688a" d="M 223.5,227.5 C 225.063,228.945 226.396,230.611 227.5,232.5C 233.043,242.284 239.043,251.617 245.5,260.5C 245.218,261.778 244.551,262.778 243.5,263.5C 242.061,261.64 240.395,259.973 238.5,258.5C 236.86,255.218 234.86,252.218 232.5,249.5C 232.262,247.596 231.262,246.262 229.5,245.5C 229.573,243.973 228.906,242.973 227.5,242.5C 227.262,240.596 226.262,239.262 224.5,238.5C 224.573,236.973 223.906,235.973 222.5,235.5C 221.92,233.251 220.587,231.585 218.5,230.5C 218.167,229.833 217.833,229.167 217.5,228.5C 216.817,226.824 215.483,226.157 213.5,226.5C 213.5,226.167 213.5,225.833 213.5,225.5C 215.017,225.489 216.184,224.823 217,223.5C 218.011,224.337 219.178,224.67 220.5,224.5C 220.34,226.199 220.506,227.866 221,229.5C 221.417,228.244 222.25,227.577 223.5,227.5 Z"/></g>
<g><path style="opacity:1" fill="#c9d7dc" d="M 258.5,246.5 C 259.451,247.919 259.784,249.585 259.5,251.5C 258.325,251.281 257.325,251.614 256.5,252.5C 256.006,254.026 255.339,255.359 254.5,256.5C 254.481,254.94 254.148,253.44 253.5,252C 254.056,250.989 254.722,250.156 255.5,249.5C 256.167,249.5 256.833,249.5 257.5,249.5C 258.404,248.791 258.737,247.791 258.5,246.5 Z"/></g>
<g><path style="opacity:1" fill="#bad1db" d="M 232.5,249.5 C 234.86,252.218 236.86,255.218 238.5,258.5C 235.411,256.25 233.411,253.25 232.5,249.5 Z"/></g>
<g><path style="opacity:1" fill="#8ba8b3" d="M 254.5,256.5 C 253.833,257.833 252.833,258.833 251.5,259.5C 251.5,257.5 252.5,256.5 254.5,256.5 Z"/></g>
<g><path style="opacity:1" fill="#95c9e0" d="M 97.5,253.5 C 99.1991,255.566 100.532,257.9 101.5,260.5C 99.058,258.879 97.7247,256.546 97.5,253.5 Z"/></g>
<g><path style="opacity:1" fill="#60abca" d="M 111.5,244.5 C 112.268,245.263 112.768,246.263 113,247.5C 113.499,251.486 113.666,255.486 113.5,259.5C 113.5,259.833 113.5,260.167 113.5,260.5C 113.167,260.5 112.833,260.5 112.5,260.5C 112.528,255.138 112.194,249.805 111.5,244.5 Z"/></g>
<g><path style="opacity:1" fill="#d4dfe4" d="M 238.5,258.5 C 240.395,259.973 242.061,261.64 243.5,263.5C 243.402,266.248 244.402,266.914 246.5,265.5C 246.278,268.076 244.945,268.91 242.5,268C 239.973,265.316 238.64,262.149 238.5,258.5 Z"/></g>
<g><path style="opacity:1" fill="#1f5872" d="M 251.5,246.5 C 252.404,247.209 252.737,248.209 252.5,249.5C 253.5,249.5 254.5,249.5 255.5,249.5C 254.722,250.156 254.056,250.989 253.5,252C 254.148,253.44 254.481,254.94 254.5,256.5C 252.5,256.5 251.5,257.5 251.5,259.5C 249.554,260.035 248.554,261.368 248.5,263.5C 247.5,263.833 246.833,264.5 246.5,265.5C 244.402,266.914 243.402,266.248 243.5,263.5C 244.551,262.778 245.218,261.778 245.5,260.5C 248.472,258.222 250.139,255.222 250.5,251.5C 250.216,249.585 250.549,247.919 251.5,246.5 Z"/></g>
<g><path style="opacity:1" fill="#9cb1bc" d="M 251.5,259.5 C 250.974,261.23 249.974,262.564 248.5,263.5C 248.554,261.368 249.554,260.035 251.5,259.5 Z"/></g>
<g><path style="opacity:1" fill="#a8d0e1" d="M 112.5,260.5 C 112.833,260.5 113.167,260.5 113.5,260.5C 111.366,262.47 109.366,264.637 107.5,267C 105.537,267.844 104.204,267.344 103.5,265.5C 104.423,266.303 105.423,266.47 106.5,266C 108.045,263.62 110.045,261.786 112.5,260.5 Z"/></g>
</svg>
