<?xml version="1.0" standalone="no"?>
<!DOCTYPE svg PUBLIC "-//W3C//DTD SVG 20010904//EN"
 "http://www.w3.org/TR/2001/REC-SVG-20010904/DTD/svg10.dtd">
<svg version="1.0" xmlns="http://www.w3.org/2000/svg"
 width="256.000000pt" height="256.000000pt" viewBox="0 0 256.000000 256.000000"
 preserveAspectRatio="xMidYMid meet">

<g transform="translate(0.000000,256.000000) scale(0.100000,-0.100000)"
fill="#000000" stroke="none">
<path d="M255 2340 c-4 -6 -15 -8 -26 -5 -14 5 -32 -4 -62 -31 -53 -47 -54
-52 -23 -60 21 -5 31 0 52 25 14 17 35 31 46 31 11 0 115 -40 232 -89 350
-147 868 -332 885 -316 2 3 -9 10 -25 15 -17 6 -38 24 -47 40 -28 48 -46 60
-86 60 -20 0 -56 9 -79 20 -22 11 -45 20 -51 20 -5 0 -13 4 -16 10 -3 5 0 7 9
4 8 -3 32 7 53 22 56 42 168 136 171 144 1 4 -4 12 -12 19 -12 10 -25 3 -71
-39 -32 -29 -72 -58 -89 -65 -18 -8 -46 -30 -64 -50 -42 -50 -61 -40 -20 9 32
39 32 39 8 33 -40 -11 -260 39 -260 59 0 3 30 33 67 68 40 38 63 67 59 74 -13
21 -34 13 -98 -42 -35 -29 -76 -56 -91 -60 -16 -4 -35 -19 -45 -36 -20 -35
-36 -34 -40 3 -3 21 -12 28 -50 40 -26 8 -107 36 -180 61 -152 52 -139 49
-147 36z m720 -268 c-3 -3 -11 0 -18 7 -9 10 -8 11 6 5 10 -3 15 -9 12 -12z"/>
<path d="M2077 2293 c-10 -16 8 -30 41 -31 21 0 32 4 32 14 0 8 -6 14 -12 14
-7 0 -23 3 -34 6 -12 3 -24 2 -27 -3z"/>
<path d="M2177 2266 c-10 -26 34 -49 48 -26 8 13 -13 40 -30 40 -7 0 -15 -6
-18 -14z"/>
<path d="M2245 2210 c-10 -16 4 -50 21 -50 8 0 14 8 14 19 0 23 -25 47 -35 31z"/>
<path d="M2265 2131 c-7 -12 12 -24 25 -16 11 7 4 25 -10 25 -5 0 -11 -4 -15
-9z"/>
<path d="M2267 2094 c-16 -16 -6 -35 16 -32 12 2 22 10 22 18 0 16 -26 25 -38
14z"/>
<path d="M411 2071 c13 -10 34 -23 47 -30 16 -9 22 -21 22 -45 0 -30 6 -38 43
-59 23 -13 100 -59 170 -102 111 -67 128 -81 125 -101 -2 -18 20 -47 102 -129
60 -60 113 -105 124 -105 10 0 24 -7 30 -16 10 -13 22 -3 80 65 37 45 133 143
213 219 134 127 205 210 156 184 -25 -14 -103 -89 -103 -100 0 -17 -252 -263
-265 -259 -6 3 -65 45 -131 94 -65 49 -144 105 -174 125 -91 59 -362 228 -367
228 -2 0 -21 11 -41 25 -42 29 -66 34 -31 6z"/>
<path d="M1280 1991 c0 -5 7 -14 15 -21 12 -10 15 -10 15 3 0 8 -7 17 -15 21
-8 3 -15 2 -15 -3z"/>
<path d="M2147 1791 c-70 -72 -83 -92 -44 -66 27 18 121 124 115 131 -3 2 -35
-27 -71 -65z"/>
<path d="M1908 1523 c-43 -42 -80 -75 -83 -72 -3 3 17 32 45 63 135 154 3 43
-425 -359 -225 -211 -343 -295 -469 -334 -84 -26 -110 -27 -102 -5 7 18 -86
-61 -154 -130 -42 -44 -44 -47 -23 -52 13 -4 31 -20 42 -38 16 -27 168 -316
195 -373 11 -23 45 -48 53 -39 3 2 6 16 7 30 0 14 4 26 8 26 10 0 -20 304 -41
416 -13 68 2 83 149 159 93 48 152 87 232 155 102 85 138 106 138 78 0 -7 48
-61 107 -120 92 -92 110 -106 132 -102 25 5 32 -4 125 -161 55 -92 106 -169
115 -172 9 -2 23 -8 31 -12 16 -9 185 -238 227 -309 l26 -44 38 44 c21 23 38
54 39 67 0 13 8 30 17 37 17 11 13 24 -46 168 -35 86 -61 162 -58 169 3 8 18
17 34 20 30 7 183 122 183 138 0 18 -17 8 -80 -46 -50 -43 -71 -55 -90 -51
-18 3 -34 -4 -57 -27 -39 -37 -43 -25 -8 23 14 19 25 41 25 50 0 8 12 33 26
55 l27 40 -36 -33 c-19 -19 -42 -32 -52 -30 -11 2 -28 40 -56 123 -21 66 -39
123 -39 128 0 4 16 7 36 7 28 0 52 11 103 49 79 59 121 101 100 101 -8 0 -43
-25 -78 -56 -56 -49 -67 -54 -94 -48 -26 5 -34 2 -57 -26 -27 -33 -27 -33 -47
-14 -20 19 -32 42 -29 57 1 9 -51 37 -70 37 -8 0 -14 -5 -14 -11 0 -31 130
-392 219 -608 56 -134 101 -252 101 -261 0 -22 -29 -48 -38 -34 -4 6 -83 129
-176 275 -238 371 -277 429 -383 561 -51 65 -93 123 -93 129 0 6 83 94 184
194 102 101 192 197 201 214 8 17 14 31 13 31 -2 0 -38 -35 -80 -77z"/>
<path d="M2171 1170 c-39 -44 -71 -89 -71 -100 0 -11 3 -20 6 -20 11 0 43 45
44 60 0 8 25 43 56 78 31 34 51 62 45 62 -5 0 -42 -36 -80 -80z"/>
<path d="M167 1002 c-10 -10 -17 -21 -17 -25 0 -3 91 -52 203 -108 187 -94
261 -137 279 -163 4 -6 9 -8 12 -5 6 6 96 226 96 235 0 3 -8 3 -17 0 -9 -4
-19 -2 -22 3 -5 7 -468 81 -510 81 -4 0 -15 -8 -24 -18z"/>
<path d="M2323 858 c-24 -32 -24 -41 0 -19 15 14 27 26 27 28 0 8 -19 2 -27
-9z"/>
</g>
</svg>
